<?xml version="1.0" encoding="utf-8"?>
<!-- Generator: Adobe Illustrator 27.7.0, SVG Export Plug-In . SVG Version: 6.00 Build 0)  -->
<svg version="1.1" id="Ebene_1" xmlns="http://www.w3.org/2000/svg" xmlns:xlink="http://www.w3.org/1999/xlink" x="0px" y="0px"
	 viewBox="0 0 2721.21 3605.94" style="enable-background:new 0 0 2721.21 3605.94;" xml:space="preserve">
<style type="text/css">
	.st0{fill:#E5E4E4;}
	.st1{fill:#343A40;}
	.st2{fill:#5BBBA2;}
	.st3{fill:#335EA9;}
</style>
<g>
	<g id="cloud-infrastructure">
		<g>
			<path class="st0" d="M2698.53,3605.94H162.82c-12.47,0-22.68-10.2-22.68-22.68V1349.37c0-12.47,10.2-22.68,22.68-22.68h2535.71
				c12.47,0,22.68,10.2,22.68,22.68v2233.89C2721.21,3595.73,2711.01,3605.94,2698.53,3605.94z"/>
		</g>
		<g>
			<path class="st1" d="M27.46,2804.3c0.31,0.23,0.56,0.46,0.73,0.69c0.17,0.23,0.26,0.56,0.26,0.99c0,0.43-0.18,0.89-0.54,1.39
				s-0.75,1.14-1.18,1.91c-0.43,0.77-0.82,1.71-1.18,2.81s-0.54,2.45-0.54,4.05c0,2.12,0.38,3.99,1.14,5.62
				c0.76,1.63,1.85,3,3.28,4.1c1.43,1.1,3.16,1.93,5.19,2.49c2.03,0.56,4.3,0.84,6.82,0.84c2.63,0,4.97-0.3,7.01-0.9
				c2.04-0.6,3.76-1.44,5.15-2.53c1.39-1.09,2.45-2.41,3.17-3.97s1.09-3.31,1.09-5.26c0-1.86-0.22-3.39-0.67-4.59
				c-0.44-1.2-0.94-2.2-1.48-3c-0.54-0.8-1.04-1.46-1.48-1.97c-0.44-0.51-0.67-1.03-0.67-1.54c0-0.66,0.24-1.14,0.73-1.46l2.79-2.15
				c2.32,1.89,4.01,4.25,5.08,7.08s1.61,5.82,1.61,8.97c0,2.72-0.5,5.24-1.5,7.57c-1,2.33-2.45,4.35-4.35,6.07
				c-1.9,1.72-4.24,3.07-7.01,4.05c-2.77,0.99-5.93,1.48-9.48,1.48c-3.23,0-6.22-0.45-8.97-1.35c-2.75-0.9-5.11-2.22-7.1-3.95
				c-1.99-1.73-3.54-3.87-4.65-6.41c-1.12-2.55-1.67-5.46-1.67-8.75c0-3.03,0.49-5.72,1.48-8.06c0.99-2.34,2.38-4.42,4.18-6.22
				L27.46,2804.3z"/>
			<path class="st1" d="M0,2785.38h63.19v7.63H0V2785.38z"/>
			<path class="st1" d="M19.05,2754.33c0-3.17,0.53-6.04,1.59-8.6c1.06-2.56,2.56-4.73,4.5-6.52c1.94-1.79,4.3-3.16,7.06-4.12
				s5.84-1.44,9.24-1.44c3.43,0,6.52,0.48,9.27,1.44c2.75,0.96,5.09,2.33,7.04,4.12c1.95,1.79,3.44,3.96,4.48,6.52
				c1.04,2.56,1.57,5.43,1.57,8.6c0,3.17-0.52,6.04-1.57,8.6c-1.04,2.56-2.54,4.74-4.48,6.54c-1.94,1.8-4.29,3.19-7.04,4.16
				c-2.75,0.97-5.83,1.46-9.27,1.46c-3.4,0-6.48-0.49-9.24-1.46s-5.11-2.36-7.06-4.16c-1.95-1.8-3.45-3.98-4.5-6.54
				C19.58,2760.37,19.05,2757.5,19.05,2754.33z M57.83,2754.33c0-4.29-1.44-7.49-4.31-9.61c-2.87-2.12-6.88-3.17-12.03-3.17
				c-5.18,0-9.21,1.06-12.1,3.17c-2.89,2.12-4.33,5.32-4.33,9.61c0,2.17,0.37,4.06,1.12,5.66c0.74,1.6,1.82,2.94,3.22,4.01
				c1.4,1.07,3.12,1.87,5.17,2.4s4.35,0.79,6.93,0.79c2.57,0,4.88-0.26,6.91-0.79c2.03-0.53,3.74-1.33,5.13-2.4
				c1.39-1.07,2.45-2.41,3.2-4.01C57.46,2758.39,57.83,2756.5,57.83,2754.33z"/>
			<path class="st1" d="M19.73,2717.61h27.71c3.29,0,5.83-0.76,7.64-2.27c1.8-1.51,2.7-3.8,2.7-6.86c0-2.23-0.53-4.33-1.59-6.31
				c-1.06-1.97-2.53-3.79-4.42-5.45H19.73v-7.63h43.46v4.55c0,1.09-0.53,1.77-1.59,2.06l-4.68,0.6c2.09,1.89,3.77,4,5.04,6.35
				c1.27,2.35,1.91,5.03,1.91,8.06c0,2.38-0.39,4.47-1.18,6.29s-1.89,3.34-3.33,4.57c-1.43,1.23-3.16,2.15-5.19,2.77
				c-2.03,0.62-4.27,0.92-6.73,0.92H19.73V2717.61z"/>
			<path class="st1" d="M63.19,2645.92c0,1.09-0.53,1.77-1.59,2.06l-5.28,0.69c2.26,1.86,4.07,3.98,5.43,6.37
				c1.36,2.39,2.04,5.13,2.04,8.21c0,2.49-0.48,4.75-1.44,6.78c-0.96,2.03-2.37,3.76-4.22,5.19c-1.86,1.43-4.18,2.53-6.95,3.3
				c-2.77,0.77-5.96,1.16-9.57,1.16c-3.2,0-6.18-0.43-8.94-1.29c-2.76-0.86-5.15-2.1-7.19-3.71c-2.03-1.62-3.62-3.58-4.78-5.9
				s-1.74-4.95-1.74-7.89c0-2.66,0.45-4.93,1.35-6.82c0.9-1.89,2.17-3.57,3.8-5.06H0v-7.64h63.19V2645.92z M57.61,2660.72
				c0-2.49-0.57-4.67-1.72-6.54c-1.14-1.87-2.76-3.6-4.85-5.17H30.03c-1.89,1.4-3.21,2.94-3.97,4.61c-0.76,1.67-1.14,3.52-1.14,5.55
				c0,4.06,1.44,7.18,4.33,9.35c2.89,2.17,7.01,3.26,12.35,3.26c2.83,0,5.25-0.24,7.27-0.73c2.02-0.49,3.68-1.2,4.98-2.14
				c1.3-0.94,2.25-2.1,2.85-3.47C57.31,2664.07,57.61,2662.5,57.61,2660.72z"/>
			<path class="st1" d="M6.09,2601.78c0.74,0,1.44,0.15,2.08,0.45s1.22,0.7,1.72,1.2c0.5,0.5,0.89,1.08,1.18,1.74
				c0.29,0.66,0.43,1.36,0.43,2.1s-0.14,1.44-0.43,2.08c-0.29,0.64-0.68,1.22-1.18,1.72c-0.5,0.5-1.07,0.89-1.72,1.18
				c-0.64,0.29-1.34,0.43-2.08,0.43c-0.74,0-1.45-0.14-2.12-0.43c-0.67-0.29-1.26-0.68-1.76-1.18c-0.5-0.5-0.89-1.07-1.18-1.72
				c-0.29-0.64-0.43-1.34-0.43-2.08s0.14-1.44,0.43-2.1c0.29-0.66,0.68-1.24,1.18-1.74c0.5-0.5,1.09-0.9,1.76-1.2
				S5.35,2601.78,6.09,2601.78z M19.73,2603.5h43.46v7.64H19.73V2603.5z"/>
			<path class="st1" d="M63.19,2590.03H19.73v-4.55c0-1.09,0.53-1.77,1.59-2.06l4.72-0.6c-2.09-1.89-3.78-4-5.06-6.33
				c-1.29-2.33-1.93-5.03-1.93-8.09c0-2.37,0.39-4.47,1.18-6.29c0.79-1.82,1.9-3.33,3.35-4.55c1.44-1.21,3.18-2.14,5.21-2.77
				c2.03-0.63,4.28-0.94,6.74-0.94h27.67v7.64H35.52c-3.29,0-5.84,0.75-7.66,2.25c-1.82,1.5-2.72,3.8-2.72,6.88
				c0,2.26,0.54,4.37,1.63,6.33s2.56,3.77,4.42,5.43h32V2590.03z"/>
			<path class="st1" d="M63.19,2540.61H26.25l-0.56,4.8c-0.14,0.6-0.37,1.09-0.67,1.48c-0.3,0.39-0.74,0.58-1.31,0.58h-3.13v-6.86
				h-4.2c-2.49,0-4.7-0.35-6.63-1.05c-1.93-0.7-3.56-1.7-4.89-3c-1.33-1.3-2.34-2.87-3.02-4.7s-1.03-3.89-1.03-6.18
				c0-1.94,0.29-3.75,0.86-5.4l3.82,0.17c0.57,0.03,0.92,0.27,1.03,0.73c0.12,0.46,0.17,1.1,0.17,1.93v1.33
				c0,1.32,0.17,2.51,0.51,3.58s0.9,2,1.67,2.77c0.77,0.77,1.79,1.37,3.05,1.78c1.26,0.42,2.82,0.62,4.68,0.62h3.99v-12.57h5.53
				v12.31h37.06V2540.61z"/>
			<path class="st1" d="M63.19,2513.42H19.73v-4.38c0-0.83,0.16-1.4,0.47-1.72c0.32-0.31,0.86-0.53,1.63-0.64l6.78-0.52
				c-3.03-1.49-5.4-3.32-7.1-5.51s-2.55-4.75-2.55-7.7c0-1.2,0.14-2.29,0.41-3.26c0.27-0.97,0.65-1.87,1.14-2.7l5.71,0.99
				c0.71,0.2,1.07,0.64,1.07,1.33c0,0.4-0.14,1.02-0.41,1.84c-0.27,0.83-0.41,1.99-0.41,3.47c0,2.66,0.77,4.88,2.32,6.67
				c1.54,1.79,3.79,3.28,6.74,4.48h27.67V2513.42z"/>
			<path class="st1" d="M63.19,2448.55v3.39c0,0.74-0.11,1.34-0.34,1.8c-0.23,0.46-0.71,0.76-1.46,0.9l-4.03,0.86
				c1.03,1.14,1.95,2.26,2.77,3.35c0.82,1.09,1.5,2.23,2.06,3.43s0.98,2.48,1.27,3.84c0.29,1.36,0.43,2.87,0.43,4.53
				c0,1.69-0.24,3.27-0.71,4.74c-0.47,1.47-1.18,2.75-2.13,3.84s-2.15,1.95-3.59,2.6c-1.45,0.64-3.16,0.96-5.14,0.96
				c-1.72,0-3.38-0.47-4.97-1.42s-3.01-2.47-4.24-4.57c-1.23-2.1-2.25-4.85-3.04-8.26c-0.79-3.4-1.18-7.56-1.18-12.48h-3.41
				c-3.4,0-5.96,0.72-7.71,2.17c-1.74,1.44-2.61,3.58-2.61,6.41c0,1.86,0.24,3.43,0.71,4.7c0.47,1.27,1,2.38,1.59,3.3
				c0.59,0.93,1.12,1.73,1.59,2.4c0.47,0.67,0.71,1.34,0.71,2c0,0.51-0.14,0.96-0.41,1.35c-0.27,0.39-0.61,0.69-1.01,0.92
				l-2.45,1.37c-2.32-2.4-4.05-4.99-5.19-7.77c-1.14-2.77-1.72-5.85-1.72-9.22c0-2.43,0.4-4.59,1.2-6.48
				c0.8-1.89,1.92-3.47,3.35-4.76c1.43-1.29,3.16-2.26,5.19-2.92c2.03-0.66,4.26-0.99,6.69-0.99H63.19z M58.51,2468.37
				c0-1.34-0.14-2.57-0.41-3.69s-0.66-2.17-1.16-3.15s-1.11-1.93-1.82-2.83c-0.71-0.9-1.53-1.78-2.45-2.64h-8.97
				c0,3.52,0.22,6.51,0.67,8.97c0.45,2.46,1.03,4.46,1.75,6.01c0.72,1.54,1.57,2.67,2.55,3.37c0.98,0.7,2.07,1.05,3.28,1.05
				c1.15,0,2.14-0.19,2.98-0.56c0.83-0.37,1.52-0.87,2.05-1.5s0.92-1.37,1.16-2.23C58.39,2470.3,58.51,2469.37,58.51,2468.37z"/>
			<path class="st1" d="M26.9,2412.09c0.63,0.34,0.94,0.87,0.94,1.59c0,0.43-0.16,0.92-0.47,1.46s-0.67,1.21-1.05,1.99
				c-0.39,0.79-0.74,1.72-1.07,2.81c-0.33,1.09-0.49,2.37-0.49,3.86c0,1.29,0.17,2.45,0.49,3.47c0.33,1.03,0.78,1.91,1.35,2.64
				c0.57,0.73,1.24,1.29,2,1.67c0.76,0.39,1.58,0.58,2.47,0.58c1.12,0,2.04-0.32,2.79-0.97c0.74-0.64,1.39-1.49,1.93-2.55
				s1.02-2.26,1.44-3.6c0.42-1.34,0.86-2.72,1.33-4.14s0.99-2.79,1.57-4.14c0.57-1.34,1.29-2.54,2.15-3.6
				c0.86-1.06,1.91-1.91,3.15-2.55c1.24-0.64,2.74-0.97,4.48-0.97c2,0,3.85,0.36,5.55,1.07c1.7,0.72,3.17,1.77,4.42,3.17
				c1.24,1.4,2.22,3.12,2.94,5.15c0.71,2.03,1.07,4.38,1.07,7.04c0,3.03-0.49,5.78-1.48,8.24c-0.99,2.46-2.25,4.55-3.8,6.26
				l-2.92-1.8c-0.37-0.23-0.66-0.5-0.86-0.82c-0.2-0.31-0.3-0.73-0.3-1.24s0.2-1.06,0.6-1.63s0.84-1.27,1.33-2.08
				c0.49-0.82,0.93-1.8,1.33-2.96c0.4-1.16,0.6-2.61,0.6-4.35c0-1.49-0.19-2.79-0.58-3.9s-0.91-2.04-1.57-2.79
				c-0.66-0.74-1.42-1.29-2.27-1.65c-0.86-0.36-1.77-0.54-2.75-0.54c-1.2,0-2.19,0.32-2.98,0.96c-0.79,0.64-1.46,1.5-2.02,2.55
				s-1.04,2.27-1.46,3.62c-0.41,1.36-0.85,2.75-1.31,4.16c-0.46,1.42-0.98,2.8-1.57,4.16c-0.59,1.36-1.32,2.57-2.21,3.62
				c-0.89,1.06-1.98,1.91-3.28,2.55c-1.3,0.64-2.88,0.96-4.74,0.96c-1.66,0-3.25-0.34-4.78-1.03c-1.53-0.69-2.87-1.69-4.03-3
				c-1.16-1.32-2.08-2.93-2.77-4.85s-1.03-4.1-1.03-6.56c0-2.86,0.45-5.43,1.35-7.7c0.9-2.27,2.14-4.24,3.71-5.9L26.9,2412.09z"/>
			<path class="st1" d="M63.88,2386.57c0,3.43-0.96,6.07-2.87,7.92c-1.92,1.84-4.68,2.77-8.28,2.77h-26.6v5.23
				c0,0.46-0.14,0.84-0.41,1.16s-0.69,0.47-1.27,0.47h-3.05l-0.9-7.12l-13.43-1.76c-0.43-0.06-0.78-0.24-1.05-0.56
				c-0.27-0.31-0.41-0.71-0.41-1.2v-3.86h14.97v-12.44h5.53v12.44h26.08c1.83,0,3.19-0.44,4.08-1.33s1.33-2.03,1.33-3.43
				c0-0.8-0.11-1.49-0.32-2.08s-0.45-1.09-0.71-1.52c-0.26-0.43-0.49-0.79-0.71-1.09c-0.21-0.3-0.32-0.56-0.32-0.79
				c0-0.4,0.24-0.76,0.73-1.07l3.65-2.23c1.23,1.32,2.19,2.9,2.9,4.76C63.52,2382.68,63.88,2384.6,63.88,2386.57z"/>
			<path class="st1" d="M63.19,2367.74H19.73v-4.38c0-0.83,0.16-1.4,0.47-1.72c0.32-0.31,0.86-0.53,1.63-0.64l6.78-0.52
				c-3.03-1.49-5.4-3.32-7.1-5.51s-2.55-4.75-2.55-7.7c0-1.2,0.14-2.29,0.41-3.26c0.27-0.97,0.65-1.87,1.14-2.7l5.71,0.99
				c0.71,0.2,1.07,0.64,1.07,1.33c0,0.4-0.14,1.02-0.41,1.84c-0.27,0.83-0.41,1.99-0.41,3.47c0,2.66,0.77,4.88,2.32,6.67
				c1.54,1.79,3.79,3.28,6.74,4.48h27.67V2367.74z"/>
			<path class="st1" d="M19.73,2326.56h27.71c3.29,0,5.83-0.76,7.64-2.27s2.7-3.8,2.7-6.86c0-2.23-0.53-4.33-1.59-6.31
				c-1.06-1.97-2.53-3.79-4.42-5.45H19.73v-7.64h43.46v4.55c0,1.09-0.53,1.77-1.59,2.06l-4.68,0.6c2.09,1.89,3.77,4,5.04,6.35
				c1.27,2.34,1.91,5.03,1.91,8.06c0,2.37-0.39,4.47-1.18,6.28c-0.79,1.82-1.89,3.34-3.33,4.57c-1.43,1.23-3.16,2.15-5.19,2.77
				c-2.03,0.62-4.27,0.92-6.73,0.92H19.73V2326.56z"/>
			<path class="st1" d="M27.46,2255.82c0.31,0.23,0.56,0.46,0.73,0.69c0.17,0.23,0.26,0.56,0.26,0.99s-0.18,0.89-0.54,1.39
				c-0.36,0.5-0.75,1.14-1.18,1.91c-0.43,0.77-0.82,1.71-1.18,2.81c-0.36,1.1-0.54,2.45-0.54,4.05c0,2.12,0.38,3.99,1.14,5.62
				c0.76,1.63,1.85,3,3.28,4.1c1.43,1.1,3.16,1.93,5.19,2.49c2.03,0.56,4.3,0.84,6.82,0.84c2.63,0,4.97-0.3,7.01-0.9
				c2.04-0.6,3.76-1.44,5.15-2.53c1.39-1.09,2.45-2.41,3.17-3.97c0.73-1.56,1.09-3.31,1.09-5.25c0-1.86-0.22-3.39-0.67-4.59
				c-0.44-1.2-0.94-2.2-1.48-3s-1.04-1.46-1.48-1.97c-0.44-0.52-0.67-1.03-0.67-1.54c0-0.66,0.24-1.14,0.73-1.46l2.79-2.14
				c2.32,1.89,4.01,4.25,5.08,7.08c1.07,2.83,1.61,5.82,1.61,8.97c0,2.72-0.5,5.24-1.5,7.57c-1,2.33-2.45,4.35-4.35,6.07
				c-1.9,1.72-4.24,3.07-7.01,4.05c-2.77,0.99-5.93,1.48-9.48,1.48c-3.23,0-6.22-0.45-8.97-1.35c-2.75-0.9-5.11-2.21-7.1-3.95
				c-1.99-1.73-3.54-3.87-4.65-6.41c-1.12-2.54-1.67-5.46-1.67-8.75c0-3.03,0.49-5.72,1.48-8.06c0.99-2.34,2.38-4.42,4.18-6.22
				L27.46,2255.82z"/>
			<path class="st1" d="M63.88,2232.22c0,3.43-0.96,6.07-2.87,7.92s-4.68,2.77-8.28,2.77h-26.6v5.23c0,0.46-0.14,0.84-0.41,1.16
				s-0.69,0.47-1.27,0.47h-3.05l-0.9-7.12l-13.43-1.76c-0.43-0.06-0.78-0.24-1.05-0.56c-0.27-0.31-0.41-0.71-0.41-1.2v-3.86h14.97
				v-12.44h5.53v12.44h26.08c1.83,0,3.19-0.44,4.08-1.33s1.33-2.03,1.33-3.43c0-0.8-0.11-1.49-0.32-2.08
				c-0.21-0.59-0.45-1.09-0.71-1.52c-0.26-0.43-0.49-0.79-0.71-1.09c-0.21-0.3-0.32-0.56-0.32-0.79c0-0.4,0.24-0.76,0.73-1.07
				l3.65-2.23c1.23,1.32,2.19,2.9,2.9,4.76C63.52,2228.34,63.88,2230.25,63.88,2232.22z"/>
			<path class="st1" d="M19.73,2206.79h27.71c3.29,0,5.83-0.76,7.64-2.27c1.8-1.51,2.7-3.8,2.7-6.86c0-2.23-0.53-4.33-1.59-6.31
				c-1.06-1.97-2.53-3.79-4.42-5.45H19.73v-7.63h43.46v4.55c0,1.09-0.53,1.77-1.59,2.06l-4.68,0.6c2.09,1.89,3.77,4,5.04,6.35
				c1.27,2.35,1.91,5.03,1.91,8.06c0,2.38-0.39,4.47-1.18,6.29s-1.89,3.34-3.33,4.57c-1.43,1.23-3.16,2.15-5.19,2.77
				c-2.03,0.62-4.27,0.92-6.73,0.92H19.73V2206.79z"/>
			<path class="st1" d="M63.19,2165.69H19.73v-4.38c0-0.83,0.16-1.4,0.47-1.72c0.32-0.31,0.86-0.53,1.63-0.64l6.78-0.51
				c-3.03-1.49-5.4-3.33-7.1-5.51s-2.55-4.75-2.55-7.7c0-1.2,0.14-2.29,0.41-3.26c0.27-0.97,0.65-1.87,1.14-2.7l5.71,0.99
				c0.71,0.2,1.07,0.64,1.07,1.33c0,0.4-0.14,1.02-0.41,1.84c-0.27,0.83-0.41,1.99-0.41,3.47c0,2.66,0.77,4.88,2.32,6.67
				c1.54,1.79,3.79,3.28,6.74,4.48h27.67V2165.69z"/>
			<path class="st1" d="M19.05,2113.91c0-2.6,0.44-5,1.31-7.21s2.13-4.1,3.77-5.71c1.65-1.6,3.68-2.85,6.09-3.75
				c2.42-0.9,5.17-1.35,8.26-1.35c1.2,0,2,0.13,2.4,0.39c0.4,0.26,0.6,0.74,0.6,1.46v28.91c2.75-0.06,5.13-0.43,7.16-1.12
				s3.72-1.63,5.08-2.83s2.37-2.63,3.05-4.29c0.67-1.66,1.01-3.52,1.01-5.58c0-1.92-0.22-3.57-0.67-4.95
				c-0.44-1.39-0.92-2.58-1.44-3.58s-0.99-1.84-1.44-2.51c-0.44-0.67-0.67-1.25-0.67-1.74c0-0.63,0.24-1.12,0.73-1.46l2.79-2.15
				c1.14,0.94,2.14,2.07,2.98,3.39c0.84,1.32,1.54,2.72,2.08,4.23c0.54,1.5,0.95,3.05,1.22,4.65s0.41,3.19,0.41,4.76
				c0,3-0.51,5.77-1.52,8.3c-1.02,2.53-2.5,4.72-4.46,6.56c-1.96,1.84-4.38,3.28-7.27,4.31c-2.89,1.03-6.21,1.54-9.95,1.54
				c-3.03,0-5.86-0.46-8.49-1.39s-4.91-2.27-6.84-4.01c-1.93-1.74-3.45-3.88-4.55-6.39C19.6,2119.89,19.05,2117.06,19.05,2113.91z
				 M24.67,2113.74c0,3.69,1.07,6.59,3.2,8.71c2.13,2.12,5.08,3.43,8.86,3.95v-23.64c-1.77,0-3.4,0.24-4.87,0.73
				c-1.47,0.49-2.75,1.2-3.82,2.15c-1.07,0.94-1.9,2.09-2.49,3.45S24.67,2112,24.67,2113.74z"/>
		</g>
	</g>
	<g id="manager">
		<g>
			<path class="st1" d="M1300.94,1587.85c0.3,0.76,0.59,1.52,0.88,2.29c0.29-0.8,0.59-1.57,0.9-2.29c0.31-0.73,0.67-1.46,1.07-2.21
				l20.81-37.79c0.37-0.66,0.76-1.06,1.16-1.2c0.4-0.14,0.97-0.21,1.72-0.21h6.13v61.47h-7.29v-45.17c0-0.6,0.01-1.24,0.04-1.93
				c0.03-0.69,0.07-1.39,0.13-2.1l-21.06,38.44c-0.71,1.29-1.72,1.93-3,1.93h-1.2c-1.29,0-2.29-0.64-3-1.93l-21.53-38.56
				c0.09,0.74,0.15,1.47,0.19,2.19s0.06,1.37,0.06,1.97v45.17h-7.29v-61.47h6.13c0.74,0,1.31,0.07,1.72,0.21
				c0.4,0.14,0.79,0.54,1.16,1.2l21.23,37.84C1300.29,1586.37,1300.64,1587.09,1300.94,1587.85z"/>
			<path class="st1" d="M1379.29,1607.91h-3.39c-0.74,0-1.34-0.11-1.8-0.34c-0.46-0.23-0.76-0.71-0.9-1.46l-0.86-4.03
				c-1.14,1.03-2.26,1.95-3.35,2.77c-1.09,0.82-2.23,1.5-3.43,2.06s-2.48,0.98-3.84,1.27c-1.36,0.29-2.87,0.43-4.53,0.43
				c-1.69,0-3.27-0.24-4.74-0.71c-1.47-0.47-2.75-1.18-3.84-2.13c-1.09-0.95-1.95-2.15-2.6-3.59c-0.64-1.45-0.96-3.16-0.96-5.14
				c0-1.72,0.47-3.38,1.42-4.97s2.47-3.01,4.57-4.24c2.1-1.23,4.85-2.25,8.26-3.04c3.4-0.79,7.56-1.18,12.48-1.18v-3.41
				c0-3.4-0.72-5.96-2.17-7.71c-1.44-1.74-3.58-2.61-6.41-2.61c-1.86,0-3.43,0.24-4.7,0.71c-1.27,0.47-2.37,1-3.3,1.59
				c-0.93,0.59-1.73,1.12-2.4,1.59c-0.67,0.47-1.34,0.71-1.99,0.71c-0.51,0-0.97-0.14-1.35-0.41c-0.39-0.27-0.69-0.61-0.92-1.01
				l-1.37-2.45c2.4-2.32,4.99-4.05,7.76-5.19c2.77-1.14,5.85-1.72,9.22-1.72c2.43,0,4.59,0.4,6.48,1.2c1.89,0.8,3.47,1.92,4.76,3.35
				c1.29,1.43,2.26,3.16,2.92,5.19c0.66,2.03,0.99,4.26,0.99,6.69V1607.91z M1359.47,1603.23c1.34,0,2.57-0.14,3.69-0.41
				s2.17-0.66,3.15-1.16c0.99-0.5,1.93-1.11,2.83-1.82s1.78-1.53,2.64-2.45v-8.97c-3.52,0-6.51,0.22-8.97,0.67
				c-2.46,0.45-4.46,1.03-6.01,1.75c-1.54,0.72-2.67,1.57-3.37,2.55c-0.7,0.98-1.05,2.07-1.05,3.28c0,1.15,0.19,2.14,0.56,2.98
				c0.37,0.83,0.87,1.52,1.5,2.05c0.63,0.53,1.37,0.92,2.23,1.16C1357.54,1603.11,1358.47,1603.23,1359.47,1603.23z"/>
			<path class="st1" d="M1390.87,1607.91v-43.46h4.55c1.09,0,1.77,0.53,2.06,1.59l0.6,4.72c1.89-2.09,4-3.78,6.33-5.06
				c2.33-1.29,5.03-1.93,8.09-1.93c2.37,0,4.47,0.39,6.28,1.18c1.82,0.79,3.33,1.9,4.55,3.35c1.21,1.44,2.14,3.18,2.77,5.21
				c0.63,2.03,0.94,4.28,0.94,6.74v27.67h-7.64v-27.67c0-3.29-0.75-5.84-2.25-7.66c-1.5-1.82-3.8-2.72-6.89-2.72
				c-2.26,0-4.37,0.54-6.33,1.63s-3.77,2.56-5.43,4.42v32H1390.87z"/>
			<path class="st1" d="M1470.49,1607.91h-3.39c-0.74,0-1.34-0.11-1.8-0.34c-0.46-0.23-0.76-0.71-0.9-1.46l-0.86-4.03
				c-1.14,1.03-2.26,1.95-3.35,2.77c-1.09,0.82-2.23,1.5-3.43,2.06s-2.48,0.98-3.84,1.27c-1.36,0.29-2.87,0.43-4.53,0.43
				c-1.69,0-3.27-0.24-4.74-0.71c-1.47-0.47-2.75-1.18-3.84-2.13c-1.09-0.95-1.95-2.15-2.6-3.59c-0.64-1.45-0.96-3.16-0.96-5.14
				c0-1.72,0.47-3.38,1.42-4.97s2.47-3.01,4.57-4.24c2.1-1.23,4.85-2.25,8.26-3.04c3.4-0.79,7.56-1.18,12.48-1.18v-3.41
				c0-3.4-0.72-5.96-2.17-7.71c-1.44-1.74-3.58-2.61-6.41-2.61c-1.86,0-3.43,0.24-4.7,0.71c-1.27,0.47-2.37,1-3.3,1.59
				c-0.93,0.59-1.73,1.12-2.4,1.59c-0.67,0.47-1.34,0.71-1.99,0.71c-0.51,0-0.97-0.14-1.35-0.41c-0.39-0.27-0.69-0.61-0.92-1.01
				l-1.37-2.45c2.4-2.32,4.99-4.05,7.76-5.19c2.77-1.14,5.85-1.72,9.22-1.72c2.43,0,4.59,0.4,6.48,1.2c1.89,0.8,3.47,1.92,4.76,3.35
				c1.29,1.43,2.26,3.16,2.92,5.19c0.66,2.03,0.99,4.26,0.99,6.69V1607.91z M1450.67,1603.23c1.34,0,2.57-0.14,3.69-0.41
				s2.17-0.66,3.15-1.16c0.99-0.5,1.93-1.11,2.83-1.82s1.78-1.53,2.64-2.45v-8.97c-3.52,0-6.51,0.22-8.97,0.67
				c-2.46,0.45-4.46,1.03-6.01,1.75c-1.54,0.72-2.67,1.57-3.37,2.55c-0.7,0.98-1.05,2.07-1.05,3.28c0,1.15,0.19,2.14,0.56,2.98
				c0.37,0.83,0.87,1.52,1.5,2.05c0.63,0.53,1.37,0.92,2.23,1.16C1448.74,1603.11,1449.67,1603.23,1450.67,1603.23z"/>
			<path class="st1" d="M1496.7,1563.72c1.89,0,3.65,0.21,5.3,0.62c1.64,0.42,3.14,1.02,4.48,1.82h11.8v2.83
				c0,0.94-0.6,1.54-1.8,1.8l-4.93,0.69c0.97,1.86,1.46,3.93,1.46,6.22c0,2.12-0.41,4.04-1.22,5.77c-0.81,1.73-1.95,3.21-3.39,4.44
				c-1.44,1.23-3.16,2.17-5.15,2.83c-1.99,0.66-4.17,0.99-6.54,0.99c-2.03,0-3.95-0.24-5.75-0.73c-0.92,0.59-1.61,1.23-2.08,1.91
				c-0.47,0.68-0.71,1.35-0.71,2c0,1.06,0.41,1.87,1.24,2.42c0.83,0.55,1.93,0.94,3.3,1.18c1.37,0.24,2.93,0.35,4.68,0.35
				c1.74,0,3.52,0,5.34,0c1.82,0,3.6,0.16,5.34,0.48c1.74,0.32,3.3,0.84,4.68,1.56c1.37,0.72,2.47,1.72,3.3,3
				c0.83,1.27,1.24,2.92,1.24,4.95c0,1.88-0.46,3.71-1.39,5.47c-0.93,1.77-2.27,3.34-4.01,4.71c-1.75,1.37-3.88,2.47-6.39,3.3
				c-2.52,0.83-5.36,1.24-8.54,1.24s-5.96-0.31-8.34-0.94c-2.39-0.63-4.37-1.47-5.94-2.53c-1.57-1.06-2.75-2.28-3.54-3.67
				c-0.79-1.39-1.18-2.84-1.18-4.36c0-2.15,0.68-3.97,2.04-5.48c1.36-1.5,3.22-2.7,5.6-3.59c-1.23-0.57-2.21-1.33-2.94-2.29
				c-0.73-0.96-1.09-2.23-1.09-3.83c0-0.63,0.11-1.28,0.34-1.95c0.23-0.67,0.58-1.33,1.05-1.99c0.47-0.66,1.05-1.29,1.74-1.88
				s1.49-1.13,2.4-1.58c-2.15-1.2-3.83-2.79-5.04-4.78c-1.22-1.99-1.82-4.31-1.82-6.97c0-2.12,0.41-4.04,1.22-5.77
				c0.81-1.73,1.95-3.2,3.41-4.42s3.2-2.15,5.21-2.81C1492.09,1564.05,1494.3,1563.72,1496.7,1563.72z M1510.25,1610.11
				c0-1.11-0.3-2-0.9-2.67c-0.6-0.67-1.42-1.19-2.45-1.55c-1.03-0.37-2.22-0.63-3.56-0.81c-1.34-0.17-2.76-0.26-4.25-0.26
				c-1.49,0-3,0-4.55,0c-1.54,0-3.02-0.19-4.42-0.58c-1.63,0.77-2.95,1.72-3.97,2.84c-1.02,1.12-1.52,2.45-1.52,4
				c0,0.97,0.25,1.88,0.75,2.73s1.27,1.58,2.3,2.19c1.03,0.62,2.32,1.1,3.88,1.46c1.56,0.36,3.4,0.54,5.51,0.54
				c2.06,0,3.9-0.19,5.53-0.57c1.63-0.38,3.01-0.92,4.14-1.62c1.13-0.7,1.99-1.53,2.6-2.49
				C1509.95,1612.34,1510.25,1611.28,1510.25,1610.11z M1496.7,1586.67c1.54,0,2.91-0.21,4.1-0.64c1.19-0.43,2.18-1.03,2.98-1.8
				c0.8-0.77,1.4-1.69,1.8-2.77c0.4-1.07,0.6-2.25,0.6-3.54c0-2.66-0.81-4.78-2.42-6.35c-1.62-1.57-3.97-2.36-7.06-2.36
				c-3.06,0-5.4,0.79-7.01,2.36c-1.62,1.57-2.42,3.69-2.42,6.35c0,1.29,0.21,2.47,0.62,3.54c0.41,1.07,1.02,2,1.82,2.77
				c0.8,0.77,1.79,1.37,2.96,1.8C1493.84,1586.46,1495.18,1586.67,1496.7,1586.67z"/>
			<path class="st1" d="M1543.11,1563.76c2.6,0,5,0.44,7.21,1.31c2.2,0.87,4.1,2.13,5.71,3.77c1.6,1.65,2.85,3.68,3.75,6.09
				c0.9,2.42,1.35,5.17,1.35,8.26c0,1.2-0.13,2-0.39,2.4c-0.26,0.4-0.74,0.6-1.46,0.6h-28.91c0.06,2.75,0.43,5.13,1.12,7.16
				c0.69,2.03,1.63,3.72,2.83,5.08s2.63,2.37,4.29,3.05c1.66,0.67,3.52,1.01,5.58,1.01c1.92,0,3.57-0.22,4.95-0.67
				c1.39-0.44,2.58-0.92,3.58-1.44c1-0.51,1.84-0.99,2.51-1.44c0.67-0.44,1.25-0.67,1.74-0.67c0.63,0,1.12,0.24,1.46,0.73l2.15,2.79
				c-0.94,1.14-2.07,2.14-3.39,2.98c-1.32,0.84-2.72,1.54-4.23,2.08s-3.05,0.95-4.65,1.22c-1.6,0.27-3.19,0.41-4.76,0.41
				c-3,0-5.77-0.51-8.3-1.52c-2.53-1.02-4.72-2.5-6.56-4.46c-1.84-1.96-3.28-4.38-4.31-7.27c-1.03-2.89-1.54-6.21-1.54-9.95
				c0-3.03,0.46-5.86,1.39-8.49s2.27-4.91,4.01-6.84c1.74-1.93,3.88-3.45,6.39-4.55
				C1537.13,1564.31,1539.97,1563.76,1543.11,1563.76z M1543.28,1569.38c-3.69,0-6.59,1.07-8.71,3.2c-2.12,2.13-3.43,5.08-3.95,8.86
				h23.64c0-1.77-0.24-3.4-0.73-4.87c-0.49-1.47-1.2-2.75-2.15-3.82c-0.94-1.07-2.1-1.9-3.45-2.49
				C1546.58,1569.68,1545.03,1569.38,1543.28,1569.38z"/>
			<path class="st1" d="M1570.87,1607.91v-43.46h4.38c0.83,0,1.4,0.16,1.72,0.47c0.31,0.32,0.53,0.86,0.64,1.63l0.51,6.78
				c1.49-3.03,3.32-5.4,5.51-7.1c2.19-1.7,4.75-2.55,7.7-2.55c1.2,0,2.29,0.14,3.26,0.41c0.97,0.27,1.87,0.65,2.7,1.14l-0.99,5.71
				c-0.2,0.71-0.64,1.07-1.33,1.07c-0.4,0-1.02-0.14-1.84-0.41c-0.83-0.27-1.99-0.41-3.47-0.41c-2.66,0-4.88,0.77-6.67,2.32
				c-1.79,1.54-3.28,3.79-4.48,6.74v27.67H1570.87z"/>
		</g>
		<g>
			<path class="st2" d="M1666.38,1662.59h-471.41c-18.02,0-32.68-14.66-32.68-32.68v-101.95c0-18.02,14.66-32.68,32.68-32.68h471.41
				c18.02,0,32.68,14.66,32.68,32.68v101.95C1699.06,1647.93,1684.4,1662.59,1666.38,1662.59z M1194.98,1515.28
				c-6.99,0-12.68,5.69-12.68,12.68v101.95c0,6.99,5.69,12.68,12.68,12.68h471.41c6.99,0,12.68-5.69,12.68-12.68v-101.95
				c0-6.99-5.69-12.68-12.68-12.68H1194.98z"/>
		</g>
	</g>
	<g>
		<path class="st1" d="M1430.68,1964.28c-2.76,0-5-2.24-5-5v-247.9c0-2.76,2.24-5,5-5s5,2.24,5,5v247.9
			C1435.68,1962.04,1433.44,1964.28,1430.68,1964.28z"/>
	</g>
	<g id="network">
		<g>
			<g>
				<g>
					<path class="st2" d="M1464.66,2104.81h-65.9c-18.02,0-32.68-14.66-32.68-32.68v-31.51c0-18.02,14.66-32.68,32.68-32.68h65.9
						c18.02,0,32.68,14.66,32.68,32.68v31.51C1497.34,2090.15,1482.68,2104.81,1464.66,2104.81z M1398.77,2027.94
						c-6.99,0-12.68,5.69-12.68,12.68v31.51c0,6.99,5.69,12.68,12.68,12.68h65.9c6.99,0,12.68-5.69,12.68-12.68v-31.51
						c0-6.99-5.69-12.68-12.68-12.68H1398.77z"/>
				</g>
				<g>
					<path class="st2" d="M1504.19,2143.32h-148.85c-5.52,0-10-4.48-10-10s4.48-10,10-10h148.85c5.52,0,10,4.48,10,10
						S1509.71,2143.32,1504.19,2143.32z"/>
				</g>
			</g>
			<g>
				<g>
					<path class="st2" d="M1581.56,2272.87h-65.9c-18.02,0-32.68-14.66-32.68-32.68v-31.51c0-18.02,14.66-32.68,32.68-32.68h65.9
						c18.02,0,32.68,14.66,32.68,32.68v31.51C1614.24,2258.21,1599.58,2272.87,1581.56,2272.87z M1515.66,2196
						c-6.99,0-12.68,5.69-12.68,12.68v31.51c0,6.99,5.69,12.68,12.68,12.68h65.9c6.99,0,12.68-5.69,12.68-12.68v-31.51
						c0-6.99-5.69-12.68-12.68-12.68H1515.66z"/>
				</g>
				<g>
					<path class="st2" d="M1621.09,2311.37h-148.85c-5.52,0-10-4.48-10-10s4.48-10,10-10h148.85c5.52,0,10,4.48,10,10
						S1626.61,2311.37,1621.09,2311.37z"/>
				</g>
			</g>
			<g>
				<g>
					<path class="st2" d="M1343.35,2272.87h-65.9c-18.02,0-32.68-14.66-32.68-32.68v-31.51c0-18.02,14.66-32.68,32.68-32.68h65.9
						c18.02,0,32.68,14.66,32.68,32.68v31.51C1376.03,2258.21,1361.37,2272.87,1343.35,2272.87z M1277.45,2196
						c-6.99,0-12.68,5.69-12.68,12.68v31.51c0,6.99,5.69,12.68,12.68,12.68h65.9c6.99,0,12.68-5.69,12.68-12.68v-31.51
						c0-6.99-5.69-12.68-12.68-12.68H1277.45z"/>
				</g>
				<g>
					<path class="st2" d="M1382.88,2311.37h-148.85c-5.52,0-10-4.48-10-10s4.48-10,10-10h148.85c5.52,0,10,4.48,10,10
						S1388.4,2311.37,1382.88,2311.37z"/>
				</g>
			</g>
		</g>
		<g>
			<path class="st1" d="M1114.27,2362.4c0,0.74-0.15,1.44-0.45,2.08c-0.3,0.64-0.7,1.22-1.2,1.72c-0.5,0.5-1.08,0.89-1.74,1.18
				c-0.66,0.29-1.36,0.43-2.1,0.43c-0.74,0-1.44-0.14-2.08-0.43c-0.64-0.29-1.22-0.68-1.72-1.18c-0.5-0.5-0.89-1.07-1.18-1.72
				c-0.29-0.64-0.43-1.34-0.43-2.08c0-0.74,0.14-1.45,0.43-2.12c0.29-0.67,0.68-1.26,1.18-1.76c0.5-0.5,1.07-0.89,1.72-1.18
				c0.64-0.29,1.34-0.43,2.08-0.43c0.74,0,1.44,0.14,2.1,0.43c0.66,0.29,1.24,0.68,1.74,1.18c0.5,0.5,0.9,1.09,1.2,1.76
				S1114.27,2361.66,1114.27,2362.4z M1112.55,2376.04v43.46h-7.64v-43.46H1112.55z"/>
			<path class="st1" d="M1126.02,2419.5v-43.46h4.55c1.09,0,1.77,0.53,2.06,1.59l0.6,4.72c1.89-2.09,4-3.78,6.33-5.06
				c2.33-1.29,5.03-1.93,8.09-1.93c2.37,0,4.47,0.39,6.28,1.18c1.82,0.79,3.33,1.9,4.55,3.35c1.21,1.45,2.14,3.18,2.77,5.21
				c0.63,2.03,0.94,4.28,0.94,6.73v27.67h-7.64v-27.67c0-3.29-0.75-5.84-2.25-7.66c-1.5-1.82-3.8-2.72-6.89-2.72
				c-2.26,0-4.37,0.54-6.33,1.63c-1.96,1.09-3.77,2.56-5.43,4.42v32H1126.02z"/>
			<path class="st1" d="M1186.9,2420.18c-3.43,0-6.07-0.96-7.91-2.87s-2.77-4.68-2.77-8.28v-26.6h-5.23c-0.46,0-0.84-0.13-1.16-0.41
				c-0.31-0.27-0.47-0.69-0.47-1.27v-3.05l7.12-0.9l1.76-13.43c0.06-0.43,0.24-0.78,0.56-1.05c0.31-0.27,0.71-0.41,1.2-0.41h3.86
				v14.97h12.44v5.53h-12.44v26.08c0,1.83,0.44,3.19,1.33,4.08c0.89,0.89,2.03,1.33,3.43,1.33c0.8,0,1.49-0.11,2.08-0.32
				c0.59-0.21,1.09-0.45,1.52-0.71c0.43-0.26,0.79-0.49,1.09-0.71s0.56-0.32,0.79-0.32c0.4,0,0.76,0.24,1.07,0.73l2.23,3.65
				c-1.32,1.23-2.9,2.19-4.76,2.89C1190.78,2419.83,1188.87,2420.18,1186.9,2420.18z"/>
			<path class="st1" d="M1222.93,2375.35c2.6,0,5,0.44,7.21,1.31c2.2,0.87,4.1,2.13,5.71,3.78c1.6,1.64,2.85,3.68,3.75,6.09
				s1.35,5.17,1.35,8.26c0,1.2-0.13,2-0.39,2.4c-0.26,0.4-0.74,0.6-1.46,0.6h-28.91c0.06,2.75,0.43,5.13,1.12,7.16
				c0.69,2.03,1.63,3.72,2.83,5.08c1.2,1.36,2.63,2.37,4.29,3.04c1.66,0.67,3.52,1.01,5.58,1.01c1.92,0,3.57-0.22,4.95-0.66
				c1.39-0.44,2.58-0.92,3.58-1.44c1-0.51,1.84-0.99,2.51-1.44c0.67-0.44,1.25-0.66,1.74-0.66c0.63,0,1.12,0.24,1.46,0.73l2.15,2.79
				c-0.94,1.14-2.07,2.14-3.39,2.98c-1.32,0.84-2.72,1.54-4.23,2.08s-3.05,0.95-4.65,1.22c-1.6,0.27-3.19,0.41-4.76,0.41
				c-3,0-5.77-0.51-8.3-1.52c-2.53-1.02-4.72-2.5-6.56-4.46c-1.84-1.96-3.28-4.38-4.31-7.27c-1.03-2.89-1.54-6.21-1.54-9.95
				c0-3.03,0.46-5.86,1.39-8.49s2.27-4.91,4.01-6.84c1.74-1.93,3.88-3.45,6.39-4.55
				C1216.95,2375.91,1219.78,2375.35,1222.93,2375.35z M1223.1,2380.97c-3.69,0-6.59,1.07-8.71,3.2c-2.12,2.13-3.43,5.08-3.95,8.86
				h23.64c0-1.77-0.24-3.39-0.73-4.87c-0.49-1.47-1.2-2.74-2.15-3.82c-0.94-1.07-2.1-1.9-3.45-2.49
				C1226.4,2381.27,1224.84,2380.97,1223.1,2380.97z"/>
			<path class="st1" d="M1250.68,2419.5v-43.46h4.38c0.83,0,1.4,0.16,1.72,0.47c0.31,0.32,0.53,0.86,0.64,1.63l0.51,6.78
				c1.49-3.03,3.32-5.4,5.51-7.1c2.19-1.7,4.75-2.55,7.7-2.55c1.2,0,2.29,0.14,3.26,0.41c0.97,0.27,1.87,0.65,2.7,1.14l-0.99,5.71
				c-0.2,0.71-0.64,1.07-1.33,1.07c-0.4,0-1.02-0.13-1.84-0.41c-0.83-0.27-1.99-0.41-3.47-0.41c-2.66,0-4.88,0.77-6.67,2.32
				c-1.79,1.54-3.28,3.79-4.48,6.73v27.67H1250.68z"/>
			<path class="st1" d="M1285.26,2419.5v-43.46h4.55c1.09,0,1.77,0.53,2.06,1.59l0.6,4.72c1.89-2.09,4-3.78,6.33-5.06
				c2.33-1.29,5.03-1.93,8.09-1.93c2.37,0,4.47,0.39,6.28,1.18c1.82,0.79,3.33,1.9,4.55,3.35c1.21,1.45,2.14,3.18,2.77,5.21
				c0.63,2.03,0.94,4.28,0.94,6.73v27.67h-7.64v-27.67c0-3.29-0.75-5.84-2.25-7.66c-1.5-1.82-3.8-2.72-6.89-2.72
				c-2.26,0-4.37,0.54-6.33,1.63c-1.96,1.09-3.77,2.56-5.43,4.42v32H1285.26z"/>
			<path class="st1" d="M1364.88,2419.5h-3.39c-0.74,0-1.34-0.12-1.8-0.34c-0.46-0.23-0.76-0.71-0.9-1.46l-0.86-4.03
				c-1.14,1.03-2.26,1.95-3.35,2.77c-1.09,0.82-2.23,1.5-3.43,2.06c-1.2,0.56-2.48,0.98-3.84,1.27c-1.36,0.29-2.87,0.43-4.53,0.43
				c-1.69,0-3.27-0.24-4.74-0.71c-1.47-0.47-2.75-1.18-3.84-2.13c-1.09-0.95-1.95-2.15-2.6-3.6c-0.64-1.45-0.96-3.16-0.96-5.14
				c0-1.72,0.47-3.38,1.42-4.97c0.94-1.59,2.47-3.01,4.57-4.24c2.1-1.23,4.85-2.24,8.26-3.04c3.4-0.79,7.56-1.18,12.48-1.18v-3.41
				c0-3.39-0.72-5.96-2.17-7.71c-1.44-1.74-3.58-2.61-6.41-2.61c-1.86,0-3.43,0.24-4.7,0.71c-1.27,0.47-2.37,1-3.3,1.59
				c-0.93,0.59-1.73,1.12-2.4,1.59c-0.67,0.47-1.34,0.71-1.99,0.71c-0.51,0-0.97-0.13-1.35-0.41c-0.39-0.27-0.69-0.61-0.92-1.01
				l-1.37-2.45c2.4-2.32,4.99-4.04,7.76-5.19c2.77-1.14,5.85-1.72,9.22-1.72c2.43,0,4.59,0.4,6.48,1.2c1.89,0.8,3.47,1.92,4.76,3.35
				c1.29,1.43,2.26,3.16,2.92,5.19c0.66,2.03,0.99,4.26,0.99,6.69V2419.5z M1345.06,2414.82c1.34,0,2.57-0.14,3.69-0.41
				s2.17-0.66,3.15-1.16c0.99-0.5,1.93-1.11,2.83-1.82s1.78-1.53,2.64-2.45v-8.97c-3.52,0-6.51,0.22-8.97,0.67
				c-2.46,0.45-4.46,1.03-6.01,1.75c-1.54,0.72-2.67,1.57-3.37,2.55c-0.7,0.98-1.05,2.07-1.05,3.28c0,1.15,0.19,2.14,0.56,2.98
				c0.37,0.83,0.87,1.52,1.5,2.05c0.63,0.53,1.37,0.92,2.23,1.16S1344.06,2414.82,1345.06,2414.82z"/>
			<path class="st1" d="M1384.95,2356.31v63.19h-7.64v-63.19H1384.95z"/>
			<path class="st1" d="M1414.98,2419.5v-43.46h4.55c1.09,0,1.77,0.53,2.06,1.59l0.6,4.72c1.89-2.09,4-3.78,6.33-5.06
				c2.33-1.29,5.03-1.93,8.09-1.93c2.37,0,4.47,0.39,6.28,1.18c1.82,0.79,3.33,1.9,4.55,3.35c1.21,1.45,2.14,3.18,2.77,5.21
				c0.63,2.03,0.94,4.28,0.94,6.73v27.67h-7.64v-27.67c0-3.29-0.75-5.84-2.25-7.66c-1.5-1.82-3.8-2.72-6.89-2.72
				c-2.26,0-4.37,0.54-6.33,1.63c-1.96,1.09-3.77,2.56-5.43,4.42v32H1414.98z"/>
			<path class="st1" d="M1479.88,2375.35c2.6,0,5,0.44,7.21,1.31c2.2,0.87,4.1,2.13,5.71,3.78c1.6,1.64,2.85,3.68,3.75,6.09
				s1.35,5.17,1.35,8.26c0,1.2-0.13,2-0.39,2.4c-0.26,0.4-0.74,0.6-1.46,0.6h-28.91c0.06,2.75,0.43,5.13,1.12,7.16
				c0.69,2.03,1.63,3.72,2.83,5.08c1.2,1.36,2.63,2.37,4.29,3.04c1.66,0.67,3.52,1.01,5.58,1.01c1.92,0,3.57-0.22,4.95-0.66
				c1.39-0.44,2.58-0.92,3.58-1.44c1-0.51,1.84-0.99,2.51-1.44c0.67-0.44,1.25-0.66,1.74-0.66c0.63,0,1.12,0.24,1.46,0.73l2.15,2.79
				c-0.94,1.14-2.07,2.14-3.39,2.98c-1.32,0.84-2.72,1.54-4.23,2.08s-3.05,0.95-4.65,1.22c-1.6,0.27-3.19,0.41-4.76,0.41
				c-3,0-5.77-0.51-8.3-1.52c-2.53-1.02-4.72-2.5-6.56-4.46c-1.84-1.96-3.28-4.38-4.31-7.27c-1.03-2.89-1.54-6.21-1.54-9.95
				c0-3.03,0.46-5.86,1.39-8.49s2.27-4.91,4.01-6.84c1.74-1.93,3.88-3.45,6.39-4.55C1473.9,2375.91,1476.74,2375.35,1479.88,2375.35
				z M1480.05,2380.97c-3.69,0-6.59,1.07-8.71,3.2c-2.12,2.13-3.43,5.08-3.95,8.86h23.64c0-1.77-0.24-3.39-0.73-4.87
				c-0.49-1.47-1.2-2.74-2.15-3.82c-0.94-1.07-2.1-1.9-3.45-2.49C1483.35,2381.27,1481.8,2380.97,1480.05,2380.97z"/>
			<path class="st1" d="M1520.81,2420.18c-3.43,0-6.07-0.96-7.91-2.87s-2.77-4.68-2.77-8.28v-26.6h-5.23
				c-0.46,0-0.84-0.13-1.16-0.41c-0.31-0.27-0.47-0.69-0.47-1.27v-3.05l7.12-0.9l1.76-13.43c0.06-0.43,0.24-0.78,0.56-1.05
				c0.31-0.27,0.71-0.41,1.2-0.41h3.86v14.97h12.44v5.53h-12.44v26.08c0,1.83,0.44,3.19,1.33,4.08c0.89,0.89,2.03,1.33,3.43,1.33
				c0.8,0,1.49-0.11,2.08-0.32c0.59-0.21,1.09-0.45,1.52-0.71c0.43-0.26,0.79-0.49,1.09-0.71s0.56-0.32,0.79-0.32
				c0.4,0,0.76,0.24,1.07,0.73l2.23,3.65c-1.32,1.23-2.9,2.19-4.76,2.89C1524.69,2419.83,1522.78,2420.18,1520.81,2420.18z"/>
			<path class="st1" d="M1533.97,2376.04h6.01c0.63,0,1.14,0.16,1.54,0.47c0.4,0.32,0.67,0.69,0.82,1.12l8.32,27.97
				c0.23,1.03,0.44,2.02,0.64,2.98c0.2,0.96,0.37,1.92,0.51,2.9c0.23-0.97,0.49-1.94,0.77-2.9c0.29-0.96,0.59-1.95,0.9-2.98
				l9.18-28.14c0.14-0.43,0.39-0.79,0.75-1.07c0.36-0.29,0.81-0.43,1.35-0.43h3.3c0.57,0,1.04,0.14,1.42,0.43
				c0.37,0.29,0.63,0.64,0.77,1.07l8.97,28.14c0.31,1,0.59,1.99,0.84,2.96c0.24,0.97,0.48,1.93,0.71,2.88
				c0.14-0.95,0.33-1.93,0.56-2.96c0.23-1.03,0.47-1.99,0.73-2.87l8.49-27.97c0.14-0.46,0.41-0.84,0.81-1.14
				c0.4-0.3,0.87-0.45,1.42-0.45h5.75l-14.07,43.46h-6.05c-0.74,0-1.26-0.49-1.54-1.46l-9.61-29.47c-0.23-0.66-0.42-1.32-0.56-1.99
				c-0.14-0.67-0.29-1.34-0.43-2c-0.14,0.66-0.29,1.33-0.43,2.02c-0.14,0.69-0.33,1.36-0.56,2.02l-9.74,29.43
				c-0.31,0.97-0.9,1.46-1.76,1.46h-5.75L1533.97,2376.04z"/>
			<path class="st1" d="M1622.94,2375.35c3.17,0,6.04,0.53,8.6,1.59c2.56,1.06,4.73,2.56,6.52,4.5c1.79,1.95,3.16,4.3,4.12,7.06
				c0.96,2.76,1.44,5.84,1.44,9.24c0,3.43-0.48,6.52-1.44,9.27c-0.96,2.75-2.33,5.09-4.12,7.04c-1.79,1.95-3.96,3.44-6.52,4.48
				c-2.56,1.04-5.43,1.56-8.6,1.56s-6.04-0.52-8.6-1.56c-2.56-1.04-4.74-2.54-6.54-4.48c-1.8-1.94-3.19-4.29-4.16-7.04
				c-0.97-2.74-1.46-5.83-1.46-9.27c0-3.4,0.49-6.48,1.46-9.24c0.97-2.76,2.36-5.11,4.16-7.06c1.8-1.95,3.98-3.45,6.54-4.5
				C1616.9,2375.88,1619.77,2375.35,1622.94,2375.35z M1622.94,2414.13c4.29,0,7.49-1.44,9.61-4.31c2.12-2.88,3.17-6.88,3.17-12.03
				c0-5.18-1.06-9.21-3.17-12.1c-2.12-2.89-5.32-4.33-9.61-4.33c-2.17,0-4.06,0.37-5.66,1.12c-1.6,0.74-2.94,1.82-4.01,3.22
				c-1.07,1.4-1.87,3.12-2.4,5.17c-0.53,2.04-0.79,4.35-0.79,6.93s0.26,4.88,0.79,6.91c0.53,2.03,1.33,3.74,2.4,5.13
				s2.41,2.45,4.01,3.2C1618.88,2413.76,1620.77,2414.13,1622.94,2414.13z"/>
			<path class="st1" d="M1653.06,2419.5v-43.46h4.38c0.83,0,1.4,0.16,1.72,0.47c0.31,0.32,0.53,0.86,0.64,1.63l0.51,6.78
				c1.49-3.03,3.32-5.4,5.51-7.1c2.19-1.7,4.75-2.55,7.7-2.55c1.2,0,2.29,0.14,3.26,0.41c0.97,0.27,1.87,0.65,2.7,1.14l-0.99,5.71
				c-0.2,0.71-0.64,1.07-1.33,1.07c-0.4,0-1.02-0.13-1.84-0.41c-0.83-0.27-1.99-0.41-3.47-0.41c-2.66,0-4.88,0.77-6.67,2.32
				c-1.79,1.54-3.28,3.79-4.48,6.73v27.67H1653.06z"/>
			<path class="st1" d="M1695.57,2356.31v37.19h1.97c0.57,0,1.04-0.08,1.42-0.24c0.37-0.16,0.79-0.48,1.24-0.96l13.73-14.71
				c0.43-0.46,0.86-0.83,1.29-1.12c0.43-0.29,1-0.43,1.72-0.43h6.95l-16,17.03c-0.4,0.49-0.79,0.92-1.18,1.29
				c-0.39,0.37-0.82,0.7-1.31,0.99c0.52,0.34,0.98,0.74,1.39,1.18c0.41,0.44,0.81,0.95,1.18,1.52l16.99,21.45h-6.86
				c-0.63,0-1.17-0.12-1.61-0.37c-0.44-0.24-0.87-0.62-1.27-1.14l-14.28-17.8c-0.43-0.6-0.86-0.99-1.29-1.18
				c-0.43-0.19-1.07-0.28-1.93-0.28h-2.15v20.76h-7.68v-63.19H1695.57z"/>
			<path class="st1" d="M1757.47,2383.21c-0.34,0.63-0.87,0.94-1.59,0.94c-0.43,0-0.92-0.16-1.46-0.47c-0.54-0.31-1.21-0.66-2-1.05
				s-1.72-0.74-2.81-1.07c-1.09-0.33-2.37-0.49-3.86-0.49c-1.29,0-2.45,0.17-3.47,0.49c-1.03,0.33-1.91,0.78-2.64,1.35
				c-0.73,0.57-1.29,1.24-1.67,1.99c-0.39,0.76-0.58,1.58-0.58,2.47c0,1.12,0.32,2.04,0.97,2.79s1.49,1.39,2.55,1.93
				s2.26,1.02,3.6,1.44s2.72,0.86,4.14,1.33c1.42,0.47,2.79,0.99,4.14,1.56c1.34,0.57,2.54,1.29,3.6,2.15
				c1.06,0.86,1.91,1.91,2.55,3.15s0.97,2.74,0.97,4.48c0,2-0.36,3.85-1.07,5.55c-0.72,1.7-1.77,3.18-3.17,4.42
				c-1.4,1.24-3.12,2.22-5.15,2.94c-2.03,0.71-4.38,1.07-7.04,1.07c-3.03,0-5.78-0.49-8.24-1.48c-2.46-0.99-4.55-2.25-6.26-3.79
				l1.8-2.92c0.23-0.37,0.5-0.66,0.81-0.86c0.31-0.2,0.73-0.3,1.24-0.3s1.06,0.2,1.63,0.6c0.57,0.4,1.27,0.84,2.08,1.33
				c0.82,0.49,1.8,0.93,2.96,1.33c1.16,0.4,2.61,0.6,4.35,0.6c1.49,0,2.79-0.19,3.9-0.58c1.12-0.38,2.04-0.91,2.79-1.56
				c0.74-0.66,1.29-1.42,1.65-2.27c0.36-0.86,0.54-1.77,0.54-2.75c0-1.2-0.32-2.2-0.96-2.98c-0.64-0.79-1.5-1.46-2.55-2.02
				c-1.06-0.56-2.27-1.04-3.62-1.46c-1.36-0.41-2.75-0.85-4.16-1.31c-1.42-0.46-2.8-0.98-4.16-1.56c-1.36-0.59-2.57-1.32-3.62-2.21
				c-1.06-0.89-1.91-1.98-2.55-3.28c-0.64-1.3-0.97-2.88-0.97-4.74c0-1.66,0.34-3.25,1.03-4.78c0.69-1.53,1.69-2.88,3-4.03
				s2.93-2.08,4.85-2.77c1.92-0.69,4.1-1.03,6.56-1.03c2.86,0,5.43,0.45,7.7,1.35c2.27,0.9,4.24,2.14,5.9,3.71L1757.47,2383.21z"/>
		</g>
	</g>
	<g id="abzweigung">
		<g>
			<path class="st1" d="M1430.68,2721.01c-2.76,0-5-2.24-5-5v-247.9c0-2.76,2.24-5,5-5s5,2.24,5,5v247.9
				C1435.68,2718.77,1433.44,2721.01,1430.68,2721.01z"/>
		</g>
		<g>
			<path class="st1" d="M565.65,2719.69c-2.18,0-4.18-1.43-4.81-3.63c-0.76-2.66,0.78-5.42,3.44-6.18l865.02-246.58
				c2.66-0.76,5.42,0.78,6.18,3.44c0.76,2.66-0.78,5.42-3.44,6.18l-865.02,246.58C566.57,2719.62,566.1,2719.69,565.65,2719.69z"/>
		</g>
		<g>
			<path class="st1" d="M2305.71,2722.54c-0.45,0-0.92-0.06-1.37-0.19l-875.03-249.43c-2.66-0.76-4.19-3.52-3.44-6.18
				c0.76-2.66,3.52-4.19,6.18-3.44l875.03,249.43c2.66,0.76,4.19,3.52,3.44,6.18C2309.89,2721.1,2307.88,2722.54,2305.71,2722.54z"
				/>
		</g>
	</g>
	<g id="Storage-1">
		<g>
			<path class="st1" d="M565.65,3105.2c-2.76,0-5-2.24-5-5v-123.95c0-2.76,2.24-5,5-5s5,2.24,5,5v123.95
				C570.65,3102.96,568.41,3105.2,565.65,3105.2z"/>
		</g>
		<g id="node-1">
			<g>
				<path class="st1" d="M443.16,2815.69c0.36,0.19,0.76,0.56,1.22,1.14l35.6,46.33c-0.08-0.74-0.14-1.46-0.17-2.17
					c-0.03-0.7-0.04-1.38-0.04-2.04v-43.54h7.29v61.47h-4.2c-0.66,0-1.21-0.11-1.65-0.34s-0.88-0.62-1.31-1.16l-35.56-46.29
					c0.06,0.71,0.1,1.42,0.13,2.1c0.03,0.69,0.04,1.32,0.04,1.89v43.8h-7.29v-61.47h4.29
					C442.25,2815.41,442.8,2815.5,443.16,2815.69z"/>
				<path class="st1" d="M518.47,2832.74c3.17,0,6.04,0.53,8.6,1.59c2.56,1.06,4.73,2.56,6.52,4.5c1.79,1.94,3.16,4.3,4.12,7.06
					s1.44,5.84,1.44,9.24c0,3.43-0.48,6.52-1.44,9.27c-0.96,2.75-2.33,5.09-4.12,7.04c-1.79,1.95-3.96,3.44-6.52,4.48
					c-2.56,1.04-5.43,1.57-8.6,1.57c-3.17,0-6.04-0.52-8.6-1.57c-2.56-1.04-4.74-2.54-6.54-4.48c-1.8-1.94-3.19-4.29-4.16-7.04
					c-0.97-2.75-1.46-5.83-1.46-9.27c0-3.4,0.49-6.48,1.46-9.24c0.97-2.76,2.36-5.11,4.16-7.06c1.8-1.95,3.98-3.45,6.54-4.5
					C512.43,2833.27,515.29,2832.74,518.47,2832.74z M518.47,2871.52c4.29,0,7.49-1.44,9.61-4.31c2.12-2.87,3.17-6.88,3.17-12.03
					c0-5.18-1.06-9.21-3.17-12.1c-2.12-2.89-5.32-4.33-9.61-4.33c-2.17,0-4.06,0.37-5.66,1.12c-1.6,0.74-2.94,1.82-4.01,3.22
					c-1.07,1.4-1.87,3.12-2.4,5.17s-0.79,4.35-0.79,6.93c0,2.57,0.26,4.88,0.79,6.91c0.53,2.03,1.33,3.74,2.4,5.13
					c1.07,1.39,2.41,2.45,4.01,3.2C514.41,2871.15,516.29,2871.52,518.47,2871.52z"/>
				<path class="st1" d="M579.17,2876.88c-1.09,0-1.77-0.53-2.06-1.59l-0.69-5.28c-1.86,2.26-3.98,4.07-6.37,5.43
					c-2.39,1.36-5.13,2.04-8.21,2.04c-2.49,0-4.75-0.48-6.78-1.44c-2.03-0.96-3.76-2.37-5.19-4.22s-2.53-4.18-3.3-6.95
					c-0.77-2.77-1.16-5.96-1.16-9.57c0-3.2,0.43-6.18,1.29-8.94c0.86-2.76,2.09-5.15,3.71-7.19c1.62-2.03,3.58-3.62,5.9-4.78
					c2.32-1.16,4.95-1.74,7.89-1.74c2.66,0,4.93,0.45,6.82,1.35c1.89,0.9,3.57,2.17,5.06,3.8v-24.11h7.64v63.19H579.17z
					 M564.37,2871.3c2.49,0,4.67-0.57,6.54-1.72c1.87-1.14,3.6-2.76,5.17-4.85v-21.02c-1.4-1.89-2.94-3.21-4.61-3.97
					s-3.53-1.14-5.56-1.14c-4.06,0-7.18,1.44-9.35,4.33c-2.17,2.89-3.26,7.01-3.26,12.35c0,2.83,0.24,5.25,0.73,7.27
					c0.49,2.02,1.2,3.68,2.15,4.98c0.94,1.3,2.1,2.25,3.47,2.85S562.59,2871.3,564.37,2871.3z"/>
				<path class="st1" d="M613.74,2832.74c2.6,0,5,0.44,7.21,1.31s4.1,2.13,5.71,3.77c1.6,1.65,2.85,3.68,3.75,6.09
					c0.9,2.42,1.35,5.17,1.35,8.26c0,1.2-0.13,2-0.39,2.4c-0.26,0.4-0.74,0.6-1.46,0.6H601c0.06,2.75,0.43,5.13,1.12,7.16
					s1.63,3.72,2.83,5.08s2.63,2.37,4.29,3.05c1.66,0.67,3.52,1.01,5.58,1.01c1.92,0,3.57-0.22,4.95-0.67
					c1.39-0.44,2.58-0.92,3.58-1.44s1.84-0.99,2.51-1.44c0.67-0.44,1.25-0.67,1.74-0.67c0.63,0,1.12,0.24,1.46,0.73l2.15,2.79
					c-0.94,1.14-2.07,2.14-3.39,2.98c-1.32,0.84-2.72,1.54-4.23,2.08c-1.5,0.54-3.05,0.95-4.65,1.22c-1.6,0.27-3.19,0.41-4.76,0.41
					c-3,0-5.77-0.51-8.3-1.52c-2.53-1.02-4.72-2.5-6.56-4.46c-1.84-1.96-3.28-4.38-4.31-7.27c-1.03-2.89-1.54-6.21-1.54-9.95
					c0-3.03,0.46-5.86,1.39-8.49c0.93-2.63,2.27-4.91,4.01-6.84c1.74-1.93,3.88-3.45,6.39-4.55
					C607.76,2833.29,610.6,2832.74,613.74,2832.74z M613.91,2838.36c-3.69,0-6.59,1.07-8.71,3.2c-2.12,2.13-3.43,5.08-3.95,8.86
					h23.64c0-1.77-0.24-3.4-0.73-4.87c-0.49-1.47-1.2-2.75-2.15-3.82c-0.94-1.07-2.09-1.9-3.45-2.49S615.66,2838.36,613.91,2838.36z
					"/>
				<path class="st1" d="M664.1,2871.04h13.21v-41.91c0-1.26,0.04-2.53,0.13-3.82l-10.98,9.39c-0.29,0.23-0.57,0.39-0.86,0.49
					s-0.56,0.15-0.81,0.15c-0.43,0-0.82-0.09-1.16-0.28c-0.34-0.19-0.6-0.41-0.77-0.67l-2.4-3.3l18.27-15.83h6.22v55.77h12.1v5.83
					H664.1V2871.04z"/>
			</g>
			<g>
				<path class="st2" d="M801.36,2931.54H329.95c-18.02,0-32.68-14.66-32.68-32.68v-101.95c0-18.02,14.66-32.68,32.68-32.68h471.41
					c18.02,0,32.68,14.66,32.68,32.68v101.95C834.03,2916.89,819.37,2931.54,801.36,2931.54z M329.95,2784.24
					c-6.99,0-12.68,5.69-12.68,12.68v101.95c0,6.99,5.69,12.68,12.68,12.68h471.41c6.99,0,12.68-5.69,12.68-12.68v-101.95
					c0-6.99-5.69-12.68-12.68-12.68H329.95z"/>
			</g>
		</g>
		<g id="block-storage-1">
			<g>
				<g>
					<path class="st2" d="M323.6,3258.69c1.48,0,2.68,1.2,2.68,2.68v31.52c0,1.48-1.2,2.68-2.68,2.68h-31.52
						c-1.48,0-2.68-1.2-2.68-2.68v-31.52c0-1.48,1.2-2.68,2.68-2.68H323.6 M323.6,3238.69h-31.52c-12.52,0-22.68,10.15-22.68,22.68
						v31.52c0,12.52,10.15,22.68,22.68,22.68h31.52c12.52,0,22.68-10.15,22.68-22.68v-31.52
						C346.27,3248.84,336.12,3238.69,323.6,3238.69L323.6,3238.69z"/>
				</g>
				<g>
					<path class="st2" d="M323.6,3225.75h-31.52c-12.52,0-22.68-10.15-22.68-22.68v-31.52c0-12.52,10.15-22.68,22.68-22.68h31.52
						c12.52,0,22.68,10.15,22.68,22.68v31.52C346.27,3215.59,336.12,3225.75,323.6,3225.75z"/>
				</g>
				<g>
					<path class="st2" d="M415.01,3258.69c1.48,0,2.68,1.2,2.68,2.68v31.52c0,1.48-1.2,2.68-2.68,2.68h-31.52
						c-1.48,0-2.68-1.2-2.68-2.68v-31.52c0-1.48,1.2-2.68,2.68-2.68H415.01 M415.01,3238.69h-31.52
						c-12.52,0-22.68,10.15-22.68,22.68v31.52c0,12.52,10.15,22.68,22.68,22.68h31.52c12.52,0,22.68-10.15,22.68-22.68v-31.52
						C437.68,3248.84,427.53,3238.69,415.01,3238.69L415.01,3238.69z"/>
				</g>
				<g>
					<path class="st2" d="M415.01,3168.88c1.48,0,2.68,1.2,2.68,2.68v31.52c0,1.48-1.2,2.68-2.68,2.68h-31.52
						c-1.48,0-2.68-1.2-2.68-2.68v-31.52c0-1.48,1.2-2.68,2.68-2.68H415.01 M415.01,3148.88h-31.52
						c-12.52,0-22.68,10.15-22.68,22.68v31.52c0,12.52,10.15,22.68,22.68,22.68h31.52c12.52,0,22.68-10.15,22.68-22.68v-31.52
						C437.68,3159.03,427.53,3148.88,415.01,3148.88L415.01,3148.88z"/>
				</g>
			</g>
			<g>
				<g>
					<path class="st2" d="M747.81,3258.69c1.48,0,2.68,1.2,2.68,2.68v31.52c0,1.48-1.2,2.68-2.68,2.68H716.3
						c-1.48,0-2.68-1.2-2.68-2.68v-31.52c0-1.48,1.2-2.68,2.68-2.68H747.81 M747.81,3238.69H716.3c-12.52,0-22.68,10.15-22.68,22.68
						v31.52c0,12.52,10.15,22.68,22.68,22.68h31.52c12.52,0,22.68-10.15,22.68-22.68v-31.52
						C770.49,3248.84,760.34,3238.69,747.81,3238.69L747.81,3238.69z"/>
				</g>
				<g>
					<path class="st2" d="M747.81,3225.75H716.3c-12.52,0-22.68-10.15-22.68-22.68v-31.52c0-12.52,10.15-22.68,22.68-22.68h31.52
						c12.52,0,22.68,10.15,22.68,22.68v31.52C770.49,3215.59,760.34,3225.75,747.81,3225.75z"/>
				</g>
				<g>
					<path class="st2" d="M839.23,3258.69c1.48,0,2.68,1.2,2.68,2.68v31.52c0,1.48-1.2,2.68-2.68,2.68h-31.52
						c-1.48,0-2.68-1.2-2.68-2.68v-31.52c0-1.48,1.2-2.68,2.68-2.68H839.23 M839.23,3238.69h-31.52
						c-12.52,0-22.68,10.15-22.68,22.68v31.52c0,12.52,10.15,22.68,22.68,22.68h31.52c12.52,0,22.68-10.15,22.68-22.68v-31.52
						C861.9,3248.84,851.75,3238.69,839.23,3238.69L839.23,3238.69z"/>
				</g>
				<g>
					<path class="st2" d="M839.23,3168.88c1.48,0,2.68,1.2,2.68,2.68v31.52c0,1.48-1.2,2.68-2.68,2.68h-31.52
						c-1.48,0-2.68-1.2-2.68-2.68v-31.52c0-1.48,1.2-2.68,2.68-2.68H839.23 M839.23,3148.88h-31.52
						c-12.52,0-22.68,10.15-22.68,22.68v31.52c0,12.52,10.15,22.68,22.68,22.68h31.52c12.52,0,22.68-10.15,22.68-22.68v-31.52
						C861.9,3159.03,851.75,3148.88,839.23,3148.88L839.23,3148.88z"/>
				</g>
			</g>
			<g>
				<g>
					<path class="st2" d="M535.71,3258.69c1.48,0,2.68,1.2,2.68,2.68v31.52c0,1.48-1.2,2.68-2.68,2.68h-31.52
						c-1.48,0-2.68-1.2-2.68-2.68v-31.52c0-1.48,1.2-2.68,2.68-2.68H535.71 M535.71,3238.69h-31.52
						c-12.52,0-22.68,10.15-22.68,22.68v31.52c0,12.52,10.15,22.68,22.68,22.68h31.52c12.52,0,22.68-10.15,22.68-22.68v-31.52
						C558.38,3248.84,548.23,3238.69,535.71,3238.69L535.71,3238.69z"/>
				</g>
				<g>
					<path class="st2" d="M535.71,3225.75h-31.52c-12.52,0-22.68-10.15-22.68-22.68v-31.52c0-12.52,10.15-22.68,22.68-22.68h31.52
						c12.52,0,22.68,10.15,22.68,22.68v31.52C558.38,3215.59,548.23,3225.75,535.71,3225.75z"/>
				</g>
				<g>
					<path class="st2" d="M627.12,3258.69c1.48,0,2.68,1.2,2.68,2.68v31.52c0,1.48-1.2,2.68-2.68,2.68H595.6
						c-1.48,0-2.68-1.2-2.68-2.68v-31.52c0-1.48,1.2-2.68,2.68-2.68H627.12 M627.12,3238.69H595.6c-12.52,0-22.68,10.15-22.68,22.68
						v31.52c0,12.52,10.15,22.68,22.68,22.68h31.52c12.52,0,22.68-10.15,22.68-22.68v-31.52
						C649.79,3248.84,639.64,3238.69,627.12,3238.69L627.12,3238.69z"/>
				</g>
				<g>
					<path class="st2" d="M627.12,3168.88c1.48,0,2.68,1.2,2.68,2.68v31.52c0,1.48-1.2,2.68-2.68,2.68H595.6
						c-1.48,0-2.68-1.2-2.68-2.68v-31.52c0-1.48,1.2-2.68,2.68-2.68H627.12 M627.12,3148.88H595.6c-12.52,0-22.68,10.15-22.68,22.68
						v31.52c0,12.52,10.15,22.68,22.68,22.68h31.52c12.52,0,22.68-10.15,22.68-22.68v-31.52
						C649.79,3159.03,639.64,3148.88,627.12,3148.88L627.12,3148.88z"/>
				</g>
			</g>
		</g>
	</g>
	<g id="Storage-2">
		<g>
			<path class="st1" d="M1429.77,3105.2c-2.76,0-5-2.24-5-5v-123.95c0-2.76,2.24-5,5-5s5,2.24,5,5v123.95
				C1434.77,3102.96,1432.53,3105.2,1429.77,3105.2z"/>
		</g>
		<g id="node-2">
			<g>
				<path class="st1" d="M1307.27,2815.69c0.36,0.19,0.77,0.56,1.22,1.14l35.6,46.33c-0.09-0.74-0.14-1.46-0.17-2.17
					c-0.03-0.7-0.04-1.38-0.04-2.04v-43.54h7.29v61.47h-4.2c-0.66,0-1.21-0.11-1.65-0.34s-0.88-0.62-1.31-1.16l-35.56-46.29
					c0.06,0.71,0.1,1.42,0.13,2.1c0.03,0.69,0.04,1.32,0.04,1.89v43.8h-7.29v-61.47h4.29
					C1306.37,2815.41,1306.92,2815.5,1307.27,2815.69z"/>
				<path class="st1" d="M1382.58,2832.74c3.17,0,6.04,0.53,8.6,1.59c2.56,1.06,4.73,2.56,6.52,4.5c1.79,1.94,3.16,4.3,4.12,7.06
					c0.96,2.76,1.44,5.84,1.44,9.24c0,3.43-0.48,6.52-1.44,9.27c-0.96,2.75-2.33,5.09-4.12,7.04c-1.79,1.95-3.96,3.44-6.52,4.48
					c-2.56,1.04-5.43,1.57-8.6,1.57s-6.04-0.52-8.6-1.57c-2.56-1.04-4.74-2.54-6.54-4.48c-1.8-1.94-3.19-4.29-4.16-7.04
					c-0.97-2.75-1.46-5.83-1.46-9.27c0-3.4,0.49-6.48,1.46-9.24c0.97-2.76,2.36-5.11,4.16-7.06c1.8-1.95,3.98-3.45,6.54-4.5
					C1376.54,2833.27,1379.41,2832.74,1382.58,2832.74z M1382.58,2871.52c4.29,0,7.49-1.44,9.61-4.31
					c2.12-2.87,3.17-6.88,3.17-12.03c0-5.18-1.06-9.21-3.17-12.1c-2.12-2.89-5.32-4.33-9.61-4.33c-2.17,0-4.06,0.37-5.66,1.12
					c-1.6,0.74-2.94,1.82-4.01,3.22c-1.07,1.4-1.87,3.12-2.4,5.17c-0.53,2.04-0.79,4.35-0.79,6.93c0,2.57,0.26,4.88,0.79,6.91
					c0.53,2.03,1.33,3.74,2.4,5.13c1.07,1.39,2.41,2.45,4.01,3.2C1378.52,2871.15,1380.41,2871.52,1382.58,2871.52z"/>
				<path class="st1" d="M1443.28,2876.88c-1.09,0-1.77-0.53-2.06-1.59l-0.69-5.28c-1.86,2.26-3.98,4.07-6.37,5.43
					c-2.39,1.36-5.13,2.04-8.21,2.04c-2.49,0-4.75-0.48-6.78-1.44c-2.03-0.96-3.76-2.37-5.19-4.22c-1.43-1.86-2.53-4.18-3.3-6.95
					c-0.77-2.77-1.16-5.96-1.16-9.57c0-3.2,0.43-6.18,1.29-8.94s2.09-5.15,3.71-7.19c1.62-2.03,3.58-3.62,5.9-4.78
					c2.32-1.16,4.95-1.74,7.89-1.74c2.66,0,4.93,0.45,6.82,1.35c1.89,0.9,3.57,2.17,5.06,3.8v-24.11h7.64v63.19H1443.28z
					 M1428.48,2871.3c2.49,0,4.67-0.57,6.54-1.72c1.87-1.14,3.6-2.76,5.17-4.85v-21.02c-1.4-1.89-2.94-3.21-4.61-3.97
					s-3.52-1.14-5.56-1.14c-4.06,0-7.18,1.44-9.35,4.33c-2.17,2.89-3.26,7.01-3.26,12.35c0,2.83,0.24,5.25,0.73,7.27
					c0.49,2.02,1.2,3.68,2.15,4.98c0.94,1.3,2.1,2.25,3.47,2.85C1425.14,2871,1426.71,2871.3,1428.48,2871.3z"/>
				<path class="st1" d="M1477.86,2832.74c2.6,0,5,0.44,7.21,1.31c2.2,0.87,4.1,2.13,5.71,3.77c1.6,1.65,2.85,3.68,3.75,6.09
					c0.9,2.42,1.35,5.17,1.35,8.26c0,1.2-0.13,2-0.39,2.4c-0.26,0.4-0.74,0.6-1.46,0.6h-28.91c0.06,2.75,0.43,5.13,1.12,7.16
					c0.69,2.03,1.63,3.72,2.83,5.08s2.63,2.37,4.29,3.05c1.66,0.67,3.52,1.01,5.58,1.01c1.92,0,3.57-0.22,4.95-0.67
					c1.39-0.44,2.58-0.92,3.58-1.44c1-0.51,1.84-0.99,2.51-1.44c0.67-0.44,1.25-0.67,1.74-0.67c0.63,0,1.12,0.24,1.46,0.73
					l2.15,2.79c-0.94,1.14-2.07,2.14-3.39,2.98c-1.32,0.84-2.72,1.54-4.23,2.08s-3.05,0.95-4.65,1.22c-1.6,0.27-3.19,0.41-4.76,0.41
					c-3,0-5.77-0.51-8.3-1.52c-2.53-1.02-4.72-2.5-6.56-4.46c-1.84-1.96-3.28-4.38-4.31-7.27c-1.03-2.89-1.54-6.21-1.54-9.95
					c0-3.03,0.46-5.86,1.39-8.49s2.27-4.91,4.01-6.84c1.74-1.93,3.88-3.45,6.39-4.55
					C1471.88,2833.29,1474.71,2832.74,1477.86,2832.74z M1478.03,2838.36c-3.69,0-6.59,1.07-8.71,3.2
					c-2.12,2.13-3.43,5.08-3.95,8.86h23.64c0-1.77-0.24-3.4-0.73-4.87c-0.49-1.47-1.2-2.75-2.15-3.82c-0.94-1.07-2.1-1.9-3.45-2.49
					C1481.32,2838.65,1479.77,2838.36,1478.03,2838.36z"/>
				<path class="st1" d="M1541.69,2814.72c2.6,0,5.03,0.39,7.29,1.16c2.26,0.77,4.21,1.89,5.86,3.37c1.64,1.47,2.94,3.27,3.88,5.38
					c0.94,2.12,1.42,4.52,1.42,7.21c0,2.29-0.34,4.41-1.03,6.35c-0.69,1.94-1.62,3.81-2.79,5.6c-1.17,1.79-2.52,3.52-4.05,5.19
					c-1.53,1.67-3.15,3.38-4.87,5.13l-16.17,16.56c1.14-0.31,2.3-0.56,3.47-0.75c1.17-0.19,2.3-0.28,3.39-0.28h20.59
					c0.83,0,1.49,0.24,1.97,0.73c0.49,0.49,0.73,1.12,0.73,1.89v4.63h-41.01v-2.62c0-0.54,0.11-1.1,0.32-1.67
					c0.21-0.57,0.56-1.1,1.05-1.59l19.69-19.78c1.63-1.66,3.12-3.25,4.46-4.78s2.5-3.07,3.45-4.61c0.96-1.54,1.69-3.11,2.21-4.7
					c0.51-1.59,0.77-3.28,0.77-5.08s-0.29-3.38-0.86-4.74c-0.57-1.36-1.36-2.48-2.36-3.37c-1-0.89-2.17-1.55-3.52-2
					c-1.34-0.44-2.79-0.67-4.33-0.67s-2.97,0.23-4.29,0.69c-1.32,0.46-2.48,1.09-3.5,1.91s-1.87,1.78-2.57,2.9
					c-0.7,1.12-1.19,2.35-1.48,3.69c-0.23,0.83-0.57,1.43-1.03,1.8c-0.46,0.37-1.06,0.56-1.8,0.56c-0.14,0-0.29-0.01-0.45-0.02
					c-0.16-0.01-0.34-0.04-0.54-0.06l-3.99-0.69c0.4-2.8,1.17-5.28,2.32-7.44c1.14-2.16,2.6-3.97,4.35-5.43
					c1.76-1.46,3.77-2.57,6.05-3.32C1536.6,2815.1,1539.05,2814.72,1541.69,2814.72z"/>
			</g>
			<g>
				<path class="st2" d="M1665.47,2931.54h-471.41c-18.02,0-32.68-14.66-32.68-32.68v-101.95c0-18.02,14.66-32.68,32.68-32.68
					h471.41c18.02,0,32.68,14.66,32.68,32.68v101.95C1698.15,2916.89,1683.49,2931.54,1665.47,2931.54z M1194.06,2784.24
					c-6.99,0-12.68,5.69-12.68,12.68v101.95c0,6.99,5.69,12.68,12.68,12.68h471.41c6.99,0,12.68-5.69,12.68-12.68v-101.95
					c0-6.99-5.69-12.68-12.68-12.68H1194.06z"/>
			</g>
		</g>
		<g id="block-storage-2">
			<g>
				<g>
					<path class="st2" d="M1187.71,3258.69c1.48,0,2.68,1.2,2.68,2.68v31.52c0,1.48-1.2,2.68-2.68,2.68h-31.52
						c-1.48,0-2.68-1.2-2.68-2.68v-31.52c0-1.48,1.2-2.68,2.68-2.68H1187.71 M1187.71,3238.69h-31.52
						c-12.52,0-22.68,10.15-22.68,22.68v31.52c0,12.52,10.15,22.68,22.68,22.68h31.52c12.52,0,22.68-10.15,22.68-22.68v-31.52
						C1210.39,3248.84,1200.23,3238.69,1187.71,3238.69L1187.71,3238.69z"/>
				</g>
				<g>
					<path class="st2" d="M1187.71,3225.75h-31.52c-12.52,0-22.68-10.15-22.68-22.68v-31.52c0-12.52,10.15-22.68,22.68-22.68h31.52
						c12.52,0,22.68,10.15,22.68,22.68v31.52C1210.39,3215.59,1200.23,3225.75,1187.71,3225.75z"/>
				</g>
				<g>
					<path class="st2" d="M1279.12,3258.69c1.48,0,2.68,1.2,2.68,2.68v31.52c0,1.48-1.2,2.68-2.68,2.68h-31.52
						c-1.48,0-2.68-1.2-2.68-2.68v-31.52c0-1.48,1.2-2.68,2.68-2.68H1279.12 M1279.12,3238.69h-31.52
						c-12.52,0-22.68,10.15-22.68,22.68v31.52c0,12.52,10.15,22.68,22.68,22.68h31.52c12.52,0,22.68-10.15,22.68-22.68v-31.52
						C1301.8,3248.84,1291.65,3238.69,1279.12,3238.69L1279.12,3238.69z"/>
				</g>
				<g>
					<path class="st2" d="M1279.12,3168.88c1.48,0,2.68,1.2,2.68,2.68v31.52c0,1.48-1.2,2.68-2.68,2.68h-31.52
						c-1.48,0-2.68-1.2-2.68-2.68v-31.52c0-1.48,1.2-2.68,2.68-2.68H1279.12 M1279.12,3148.88h-31.52
						c-12.52,0-22.68,10.15-22.68,22.68v31.52c0,12.52,10.15,22.68,22.68,22.68h31.52c12.52,0,22.68-10.15,22.68-22.68v-31.52
						C1301.8,3159.03,1291.65,3148.88,1279.12,3148.88L1279.12,3148.88z"/>
				</g>
			</g>
			<g>
				<g>
					<path class="st2" d="M1611.93,3258.69c1.48,0,2.68,1.2,2.68,2.68v31.52c0,1.48-1.2,2.68-2.68,2.68h-31.52
						c-1.48,0-2.68-1.2-2.68-2.68v-31.52c0-1.48,1.2-2.68,2.68-2.68H1611.93 M1611.93,3238.69h-31.52
						c-12.52,0-22.68,10.15-22.68,22.68v31.52c0,12.52,10.15,22.68,22.68,22.68h31.52c12.52,0,22.68-10.15,22.68-22.68v-31.52
						C1634.61,3248.84,1624.45,3238.69,1611.93,3238.69L1611.93,3238.69z"/>
				</g>
				<g>
					<path class="st2" d="M1611.93,3225.75h-31.52c-12.52,0-22.68-10.15-22.68-22.68v-31.52c0-12.52,10.15-22.68,22.68-22.68h31.52
						c12.52,0,22.68,10.15,22.68,22.68v31.52C1634.61,3215.59,1624.45,3225.75,1611.93,3225.75z"/>
				</g>
				<g>
					<path class="st2" d="M1703.34,3258.69c1.48,0,2.68,1.2,2.68,2.68v31.52c0,1.48-1.2,2.68-2.68,2.68h-31.52
						c-1.48,0-2.68-1.2-2.68-2.68v-31.52c0-1.48,1.2-2.68,2.68-2.68H1703.34 M1703.34,3238.69h-31.52
						c-12.52,0-22.68,10.15-22.68,22.68v31.52c0,12.52,10.15,22.68,22.68,22.68h31.52c12.52,0,22.68-10.15,22.68-22.68v-31.52
						C1726.02,3248.84,1715.86,3238.69,1703.34,3238.69L1703.34,3238.69z"/>
				</g>
				<g>
					<path class="st2" d="M1703.34,3168.88c1.48,0,2.68,1.2,2.68,2.68v31.52c0,1.48-1.2,2.68-2.68,2.68h-31.52
						c-1.48,0-2.68-1.2-2.68-2.68v-31.52c0-1.48,1.2-2.68,2.68-2.68H1703.34 M1703.34,3148.88h-31.52
						c-12.52,0-22.68,10.15-22.68,22.68v31.52c0,12.52,10.15,22.68,22.68,22.68h31.52c12.52,0,22.68-10.15,22.68-22.68v-31.52
						C1726.02,3159.03,1715.86,3148.88,1703.34,3148.88L1703.34,3148.88z"/>
				</g>
			</g>
			<g>
				<g>
					<path class="st2" d="M1399.82,3258.69c1.48,0,2.68,1.2,2.68,2.68v31.52c0,1.48-1.2,2.68-2.68,2.68h-31.52
						c-1.48,0-2.68-1.2-2.68-2.68v-31.52c0-1.48,1.2-2.68,2.68-2.68H1399.82 M1399.82,3238.69h-31.52
						c-12.52,0-22.68,10.15-22.68,22.68v31.52c0,12.52,10.15,22.68,22.68,22.68h31.52c12.52,0,22.68-10.15,22.68-22.68v-31.52
						C1422.5,3248.84,1412.34,3238.69,1399.82,3238.69L1399.82,3238.69z"/>
				</g>
				<g>
					<path class="st2" d="M1399.82,3225.75h-31.52c-12.52,0-22.68-10.15-22.68-22.68v-31.52c0-12.52,10.15-22.68,22.68-22.68h31.52
						c12.52,0,22.68,10.15,22.68,22.68v31.52C1422.5,3215.59,1412.34,3225.75,1399.82,3225.75z"/>
				</g>
				<g>
					<path class="st2" d="M1491.23,3258.69c1.48,0,2.68,1.2,2.68,2.68v31.52c0,1.48-1.2,2.68-2.68,2.68h-31.52
						c-1.48,0-2.68-1.2-2.68-2.68v-31.52c0-1.48,1.2-2.68,2.68-2.68H1491.23 M1491.23,3238.69h-31.52
						c-12.52,0-22.68,10.15-22.68,22.68v31.52c0,12.52,10.15,22.68,22.68,22.68h31.52c12.52,0,22.68-10.15,22.68-22.68v-31.52
						C1513.91,3248.84,1503.75,3238.69,1491.23,3238.69L1491.23,3238.69z"/>
				</g>
				<g>
					<path class="st2" d="M1491.23,3168.88c1.48,0,2.68,1.2,2.68,2.68v31.52c0,1.48-1.2,2.68-2.68,2.68h-31.52
						c-1.48,0-2.68-1.2-2.68-2.68v-31.52c0-1.48,1.2-2.68,2.68-2.68H1491.23 M1491.23,3148.88h-31.52
						c-12.52,0-22.68,10.15-22.68,22.68v31.52c0,12.52,10.15,22.68,22.68,22.68h31.52c12.52,0,22.68-10.15,22.68-22.68v-31.52
						C1513.91,3159.03,1503.75,3148.88,1491.23,3148.88L1491.23,3148.88z"/>
				</g>
			</g>
		</g>
	</g>
	<g id="Storage-3">
		<g>
			<path class="st1" d="M2305.7,3105.2c-2.76,0-5-2.24-5-5v-123.95c0-2.76,2.24-5,5-5s5,2.24,5,5v123.95
				C2310.7,3102.96,2308.46,3105.2,2305.7,3105.2z"/>
		</g>
		<g id="node-3">
			<g>
				<path class="st1" d="M2183.21,2815.69c0.36,0.19,0.77,0.56,1.22,1.14l35.6,46.33c-0.09-0.74-0.14-1.46-0.17-2.17
					c-0.03-0.7-0.04-1.38-0.04-2.04v-43.54h7.29v61.47h-4.2c-0.66,0-1.21-0.11-1.65-0.34s-0.88-0.62-1.31-1.16l-35.56-46.29
					c0.06,0.71,0.1,1.42,0.13,2.1c0.03,0.69,0.04,1.32,0.04,1.89v43.8h-7.29v-61.47h4.29
					C2182.3,2815.41,2182.85,2815.5,2183.21,2815.69z"/>
				<path class="st1" d="M2258.52,2832.74c3.17,0,6.04,0.53,8.6,1.59c2.56,1.06,4.73,2.56,6.52,4.5c1.79,1.94,3.16,4.3,4.12,7.06
					c0.96,2.76,1.44,5.84,1.44,9.24c0,3.43-0.48,6.52-1.44,9.27c-0.96,2.75-2.33,5.09-4.12,7.04c-1.79,1.95-3.96,3.44-6.52,4.48
					c-2.56,1.04-5.43,1.57-8.6,1.57s-6.04-0.52-8.6-1.57c-2.56-1.04-4.74-2.54-6.54-4.48c-1.8-1.94-3.19-4.29-4.16-7.04
					c-0.97-2.75-1.46-5.83-1.46-9.27c0-3.4,0.49-6.48,1.46-9.24c0.97-2.76,2.36-5.11,4.16-7.06c1.8-1.95,3.98-3.45,6.54-4.5
					C2252.48,2833.27,2255.34,2832.74,2258.52,2832.74z M2258.52,2871.52c4.29,0,7.49-1.44,9.61-4.31
					c2.12-2.87,3.17-6.88,3.17-12.03c0-5.18-1.06-9.21-3.17-12.1c-2.12-2.89-5.32-4.33-9.61-4.33c-2.17,0-4.06,0.37-5.66,1.12
					c-1.6,0.74-2.94,1.82-4.01,3.22c-1.07,1.4-1.87,3.12-2.4,5.17c-0.53,2.04-0.79,4.35-0.79,6.93c0,2.57,0.26,4.88,0.79,6.91
					c0.53,2.03,1.33,3.74,2.4,5.13c1.07,1.39,2.41,2.45,4.01,3.2C2254.46,2871.15,2256.34,2871.52,2258.52,2871.52z"/>
				<path class="st1" d="M2319.22,2876.88c-1.09,0-1.77-0.53-2.06-1.59l-0.69-5.28c-1.86,2.26-3.98,4.07-6.37,5.43
					c-2.39,1.36-5.13,2.04-8.21,2.04c-2.49,0-4.75-0.48-6.78-1.44c-2.03-0.96-3.76-2.37-5.19-4.22c-1.43-1.86-2.53-4.18-3.3-6.95
					c-0.77-2.77-1.16-5.96-1.16-9.57c0-3.2,0.43-6.18,1.29-8.94s2.09-5.15,3.71-7.19c1.62-2.03,3.58-3.62,5.9-4.78
					c2.32-1.16,4.95-1.74,7.89-1.74c2.66,0,4.93,0.45,6.82,1.35c1.89,0.9,3.57,2.17,5.06,3.8v-24.11h7.64v63.19H2319.22z
					 M2304.42,2871.3c2.49,0,4.67-0.57,6.54-1.72c1.87-1.14,3.6-2.76,5.17-4.85v-21.02c-1.4-1.89-2.94-3.21-4.61-3.97
					s-3.52-1.14-5.56-1.14c-4.06,0-7.18,1.44-9.35,4.33c-2.17,2.89-3.26,7.01-3.26,12.35c0,2.83,0.24,5.25,0.73,7.27
					c0.49,2.02,1.2,3.68,2.15,4.98c0.94,1.3,2.1,2.25,3.47,2.85C2301.07,2871,2302.65,2871.3,2304.42,2871.3z"/>
				<path class="st1" d="M2353.79,2832.74c2.6,0,5,0.44,7.21,1.31c2.2,0.87,4.1,2.13,5.71,3.77c1.6,1.65,2.85,3.68,3.75,6.09
					c0.9,2.42,1.35,5.17,1.35,8.26c0,1.2-0.13,2-0.39,2.4c-0.26,0.4-0.74,0.6-1.46,0.6h-28.91c0.06,2.75,0.43,5.13,1.12,7.16
					c0.69,2.03,1.63,3.72,2.83,5.08s2.63,2.37,4.29,3.05c1.66,0.67,3.52,1.01,5.58,1.01c1.92,0,3.57-0.22,4.95-0.67
					c1.39-0.44,2.58-0.92,3.58-1.44c1-0.51,1.84-0.99,2.51-1.44c0.67-0.44,1.25-0.67,1.74-0.67c0.63,0,1.12,0.24,1.46,0.73
					l2.15,2.79c-0.94,1.14-2.07,2.14-3.39,2.98c-1.32,0.84-2.72,1.54-4.23,2.08s-3.05,0.95-4.65,1.22c-1.6,0.27-3.19,0.41-4.76,0.41
					c-3,0-5.77-0.51-8.3-1.52c-2.53-1.02-4.72-2.5-6.56-4.46c-1.84-1.96-3.28-4.38-4.31-7.27c-1.03-2.89-1.54-6.21-1.54-9.95
					c0-3.03,0.46-5.86,1.39-8.49s2.27-4.91,4.01-6.84c1.74-1.93,3.88-3.45,6.39-4.55
					C2347.82,2833.29,2350.65,2832.74,2353.79,2832.74z M2353.96,2838.36c-3.69,0-6.59,1.07-8.71,3.2
					c-2.12,2.13-3.43,5.08-3.95,8.86h23.64c0-1.77-0.24-3.4-0.73-4.87c-0.49-1.47-1.2-2.75-2.15-3.82c-0.94-1.07-2.1-1.9-3.45-2.49
					C2357.26,2838.65,2355.71,2838.36,2353.96,2838.36z"/>
				<path class="st1" d="M2418.44,2814.72c2.6,0,5,0.37,7.21,1.12c2.2,0.74,4.1,1.8,5.68,3.17c1.59,1.37,2.82,3.03,3.71,4.98
					c0.89,1.95,1.33,4.1,1.33,6.48c0,1.95-0.25,3.68-0.75,5.21c-0.5,1.53-1.22,2.87-2.14,4.03c-0.93,1.16-2.05,2.14-3.37,2.94
					c-1.32,0.8-2.79,1.44-4.42,1.93c4,1.06,7.01,2.83,9.03,5.32c2.02,2.49,3.02,5.61,3.02,9.35c0,2.83-0.54,5.38-1.61,7.64
					c-1.07,2.26-2.54,4.18-4.4,5.77c-1.86,1.59-4.03,2.8-6.5,3.65c-2.47,0.84-5.13,1.27-7.96,1.27c-3.26,0-6.05-0.41-8.37-1.22
					s-4.28-1.94-5.88-3.37c-1.6-1.43-2.92-3.12-3.95-5.08c-1.03-1.96-1.9-4.08-2.62-6.37l3.26-1.37c0.6-0.26,1.2-0.39,1.8-0.39
					c0.57,0,1.08,0.12,1.52,0.36c0.44,0.24,0.78,0.62,1.01,1.14c0.06,0.11,0.11,0.24,0.17,0.36c0.06,0.13,0.11,0.26,0.17,0.41
					c0.4,0.83,0.89,1.77,1.46,2.81c0.57,1.04,1.34,2.02,2.32,2.94c0.97,0.92,2.18,1.69,3.62,2.32c1.44,0.63,3.24,0.94,5.38,0.94
					s4.02-0.35,5.64-1.05c1.62-0.7,2.96-1.61,4.03-2.72s1.88-2.36,2.42-3.73c0.54-1.37,0.81-2.73,0.81-4.08
					c0-1.66-0.22-3.17-0.67-4.55c-0.44-1.37-1.24-2.56-2.4-3.56c-1.16-1-2.76-1.79-4.8-2.36c-2.04-0.57-4.67-0.86-7.87-0.86v-5.58
					c2.6,0,4.83-0.27,6.67-0.81s3.35-1.29,4.53-2.23c1.17-0.94,2.02-2.07,2.55-3.39c0.53-1.31,0.79-2.77,0.79-4.38
					c0-1.77-0.28-3.32-0.84-4.63c-0.56-1.31-1.32-2.4-2.29-3.26c-0.97-0.86-2.12-1.5-3.45-1.93c-1.33-0.43-2.77-0.64-4.31-0.64
					s-2.97,0.23-4.29,0.69c-1.32,0.46-2.48,1.09-3.5,1.91c-1.02,0.81-1.87,1.79-2.55,2.92c-0.69,1.13-1.2,2.35-1.54,3.66
					c-0.23,0.83-0.57,1.43-1.03,1.8c-0.46,0.37-1.04,0.56-1.76,0.56c-0.14,0-0.29-0.01-0.45-0.02c-0.16-0.01-0.34-0.04-0.54-0.06
					l-3.99-0.68c0.4-2.8,1.17-5.28,2.32-7.44c1.14-2.16,2.6-3.97,4.35-5.43c1.76-1.46,3.77-2.57,6.05-3.32
					C2413.35,2815.1,2415.81,2814.72,2418.44,2814.72z"/>
			</g>
			<g>
				<path class="st2" d="M2541.41,2931.54H2070c-18.02,0-32.68-14.66-32.68-32.68v-101.95c0-18.02,14.66-32.68,32.68-32.68h471.41
					c18.02,0,32.68,14.66,32.68,32.68v101.95C2574.08,2916.89,2559.42,2931.54,2541.41,2931.54z M2070,2784.24
					c-6.99,0-12.68,5.69-12.68,12.68v101.95c0,6.99,5.69,12.68,12.68,12.68h471.41c6.99,0,12.68-5.69,12.68-12.68v-101.95
					c0-6.99-5.69-12.68-12.68-12.68H2070z"/>
			</g>
		</g>
		<g id="block-storage-3">
			<g>
				<g>
					<path class="st2" d="M2063.65,3258.69c1.48,0,2.68,1.2,2.68,2.68v31.52c0,1.48-1.2,2.68-2.68,2.68h-31.52
						c-1.48,0-2.68-1.2-2.68-2.68v-31.52c0-1.48,1.2-2.68,2.68-2.68H2063.65 M2063.65,3238.69h-31.52
						c-12.52,0-22.68,10.15-22.68,22.68v31.52c0,12.52,10.15,22.68,22.68,22.68h31.52c12.52,0,22.68-10.15,22.68-22.68v-31.52
						C2086.32,3248.84,2076.17,3238.69,2063.65,3238.69L2063.65,3238.69z"/>
				</g>
				<g>
					<path class="st2" d="M2063.65,3225.75h-31.52c-12.52,0-22.68-10.15-22.68-22.68v-31.52c0-12.52,10.15-22.68,22.68-22.68h31.52
						c12.52,0,22.68,10.15,22.68,22.68v31.52C2086.32,3215.59,2076.17,3225.75,2063.65,3225.75z"/>
				</g>
				<g>
					<path class="st2" d="M2155.06,3258.69c1.48,0,2.68,1.2,2.68,2.68v31.52c0,1.48-1.2,2.68-2.68,2.68h-31.52
						c-1.48,0-2.68-1.2-2.68-2.68v-31.52c0-1.48,1.2-2.68,2.68-2.68H2155.06 M2155.06,3238.69h-31.52
						c-12.52,0-22.68,10.15-22.68,22.68v31.52c0,12.52,10.15,22.68,22.68,22.68h31.52c12.52,0,22.68-10.15,22.68-22.68v-31.52
						C2177.73,3248.84,2167.58,3238.69,2155.06,3238.69L2155.06,3238.69z"/>
				</g>
				<g>
					<path class="st2" d="M2155.06,3168.88c1.48,0,2.68,1.2,2.68,2.68v31.52c0,1.48-1.2,2.68-2.68,2.68h-31.52
						c-1.48,0-2.68-1.2-2.68-2.68v-31.52c0-1.48,1.2-2.68,2.68-2.68H2155.06 M2155.06,3148.88h-31.52
						c-12.52,0-22.68,10.15-22.68,22.68v31.52c0,12.52,10.15,22.68,22.68,22.68h31.52c12.52,0,22.68-10.15,22.68-22.68v-31.52
						C2177.73,3159.03,2167.58,3148.88,2155.06,3148.88L2155.06,3148.88z"/>
				</g>
			</g>
			<g>
				<g>
					<path class="st2" d="M2487.87,3258.69c1.48,0,2.68,1.2,2.68,2.68v31.52c0,1.48-1.2,2.68-2.68,2.68h-31.52
						c-1.48,0-2.68-1.2-2.68-2.68v-31.52c0-1.48,1.2-2.68,2.68-2.68H2487.87 M2487.87,3238.69h-31.52
						c-12.52,0-22.68,10.15-22.68,22.68v31.52c0,12.52,10.15,22.68,22.68,22.68h31.52c12.52,0,22.68-10.15,22.68-22.68v-31.52
						C2510.54,3248.84,2500.39,3238.69,2487.87,3238.69L2487.87,3238.69z"/>
				</g>
				<g>
					<path class="st2" d="M2487.87,3225.75h-31.52c-12.52,0-22.68-10.15-22.68-22.68v-31.52c0-12.52,10.15-22.68,22.68-22.68h31.52
						c12.52,0,22.68,10.15,22.68,22.68v31.52C2510.54,3215.59,2500.39,3225.75,2487.87,3225.75z"/>
				</g>
				<g>
					<path class="st2" d="M2579.28,3258.69c1.48,0,2.68,1.2,2.68,2.68v31.52c0,1.48-1.2,2.68-2.68,2.68h-31.52
						c-1.48,0-2.68-1.2-2.68-2.68v-31.52c0-1.48,1.2-2.68,2.68-2.68H2579.28 M2579.28,3238.69h-31.52
						c-12.52,0-22.68,10.15-22.68,22.68v31.52c0,12.52,10.15,22.68,22.68,22.68h31.52c12.52,0,22.68-10.15,22.68-22.68v-31.52
						C2601.95,3248.84,2591.8,3238.69,2579.28,3238.69L2579.28,3238.69z"/>
				</g>
				<g>
					<path class="st2" d="M2579.28,3168.88c1.48,0,2.68,1.2,2.68,2.68v31.52c0,1.48-1.2,2.68-2.68,2.68h-31.52
						c-1.48,0-2.68-1.2-2.68-2.68v-31.52c0-1.48,1.2-2.68,2.68-2.68H2579.28 M2579.28,3148.88h-31.52
						c-12.52,0-22.68,10.15-22.68,22.68v31.52c0,12.52,10.15,22.68,22.68,22.68h31.52c12.52,0,22.68-10.15,22.68-22.68v-31.52
						C2601.95,3159.03,2591.8,3148.88,2579.28,3148.88L2579.28,3148.88z"/>
				</g>
			</g>
			<g>
				<g>
					<path class="st2" d="M2275.76,3258.69c1.48,0,2.68,1.2,2.68,2.68v31.52c0,1.48-1.2,2.68-2.68,2.68h-31.52
						c-1.48,0-2.68-1.2-2.68-2.68v-31.52c0-1.48,1.2-2.68,2.68-2.68H2275.76 M2275.76,3238.69h-31.52
						c-12.52,0-22.68,10.15-22.68,22.68v31.52c0,12.52,10.15,22.68,22.68,22.68h31.52c12.52,0,22.68-10.15,22.68-22.68v-31.52
						C2298.43,3248.84,2288.28,3238.69,2275.76,3238.69L2275.76,3238.69z"/>
				</g>
				<g>
					<path class="st2" d="M2275.76,3225.75h-31.52c-12.52,0-22.68-10.15-22.68-22.68v-31.52c0-12.52,10.15-22.68,22.68-22.68h31.52
						c12.52,0,22.68,10.15,22.68,22.68v31.52C2298.43,3215.59,2288.28,3225.75,2275.76,3225.75z"/>
				</g>
				<g>
					<path class="st2" d="M2367.17,3258.69c1.48,0,2.68,1.2,2.68,2.68v31.52c0,1.48-1.2,2.68-2.68,2.68h-31.52
						c-1.48,0-2.68-1.2-2.68-2.68v-31.52c0-1.48,1.2-2.68,2.68-2.68H2367.17 M2367.17,3238.69h-31.52
						c-12.52,0-22.68,10.15-22.68,22.68v31.52c0,12.52,10.15,22.68,22.68,22.68h31.52c12.52,0,22.68-10.15,22.68-22.68v-31.52
						C2389.84,3248.84,2379.69,3238.69,2367.17,3238.69L2367.17,3238.69z"/>
				</g>
				<g>
					<path class="st2" d="M2367.17,3168.88c1.48,0,2.68,1.2,2.68,2.68v31.52c0,1.48-1.2,2.68-2.68,2.68h-31.52
						c-1.48,0-2.68-1.2-2.68-2.68v-31.52c0-1.48,1.2-2.68,2.68-2.68H2367.17 M2367.17,3148.88h-31.52
						c-12.52,0-22.68,10.15-22.68,22.68v31.52c0,12.52,10.15,22.68,22.68,22.68h31.52c12.52,0,22.68-10.15,22.68-22.68v-31.52
						C2389.84,3159.03,2379.69,3148.88,2367.17,3148.88L2367.17,3148.88z"/>
				</g>
			</g>
		</g>
	</g>
	<g>
		<path class="st1" d="M1186.51,3439.72v-63.19h7.68v26c1.8-2.09,3.87-3.77,6.2-5.04c2.33-1.27,5-1.91,8-1.91
			c2.52,0,4.79,0.47,6.82,1.42c2.03,0.94,3.76,2.35,5.19,4.22c1.43,1.87,2.53,4.19,3.3,6.95c0.77,2.76,1.16,5.94,1.16,9.54
			c0,3.2-0.43,6.18-1.29,8.94c-0.86,2.76-2.1,5.15-3.71,7.16c-1.62,2.02-3.59,3.6-5.92,4.76c-2.33,1.16-4.95,1.74-7.87,1.74
			c-2.8,0-5.18-0.54-7.14-1.63c-1.96-1.09-3.67-2.6-5.13-4.55l-0.39,3.95c-0.23,1.09-0.89,1.63-1.97,1.63H1186.51z M1205.9,3401.67
			c-2.49,0-4.67,0.57-6.54,1.72c-1.87,1.14-3.6,2.76-5.17,4.85v21.02c1.37,1.89,2.9,3.22,4.57,3.99c1.67,0.77,3.54,1.16,5.6,1.16
			c4.06,0,7.18-1.44,9.35-4.33c2.17-2.89,3.26-7.01,3.26-12.35c0-2.83-0.25-5.26-0.75-7.29c-0.5-2.03-1.22-3.7-2.17-5
			c-0.94-1.3-2.1-2.25-3.47-2.85C1209.2,3401.97,1207.64,3401.67,1205.9,3401.67z"/>
		<path class="st1" d="M1242.71,3376.53v63.19h-7.64v-63.19H1242.71z"/>
		<path class="st1" d="M1273.76,3395.58c3.17,0,6.04,0.53,8.6,1.59c2.56,1.06,4.73,2.56,6.52,4.5c1.79,1.94,3.16,4.3,4.12,7.06
			c0.96,2.76,1.44,5.84,1.44,9.24c0,3.43-0.48,6.52-1.44,9.27c-0.96,2.75-2.33,5.09-4.12,7.04c-1.79,1.95-3.96,3.44-6.52,4.48
			c-2.56,1.04-5.43,1.57-8.6,1.57s-6.04-0.52-8.6-1.57c-2.56-1.04-4.74-2.54-6.54-4.48c-1.8-1.94-3.19-4.29-4.16-7.04
			c-0.97-2.75-1.46-5.83-1.46-9.27c0-3.4,0.49-6.48,1.46-9.24c0.97-2.76,2.36-5.11,4.16-7.06c1.8-1.95,3.98-3.45,6.54-4.5
			C1267.72,3396.11,1270.59,3395.58,1273.76,3395.58z M1273.76,3434.36c4.29,0,7.49-1.44,9.61-4.31c2.12-2.87,3.17-6.88,3.17-12.03
			c0-5.18-1.06-9.21-3.17-12.1c-2.12-2.89-5.32-4.33-9.61-4.33c-2.17,0-4.06,0.37-5.66,1.12c-1.6,0.74-2.94,1.82-4.01,3.22
			c-1.07,1.4-1.87,3.12-2.4,5.17c-0.53,2.04-0.79,4.35-0.79,6.93c0,2.57,0.26,4.88,0.79,6.91c0.53,2.03,1.33,3.74,2.4,5.13
			c1.07,1.39,2.41,2.45,4.01,3.2C1269.7,3433.99,1271.59,3434.36,1273.76,3434.36z"/>
		<path class="st1" d="M1333.52,3403.99c-0.23,0.31-0.46,0.56-0.69,0.73c-0.23,0.17-0.56,0.26-0.99,0.26
			c-0.43,0-0.89-0.18-1.39-0.54c-0.5-0.36-1.14-0.75-1.91-1.18s-1.71-0.82-2.81-1.18c-1.1-0.36-2.45-0.54-4.05-0.54
			c-2.12,0-3.99,0.38-5.62,1.14c-1.63,0.76-3,1.85-4.1,3.28c-1.1,1.43-1.93,3.16-2.49,5.19c-0.56,2.03-0.84,4.3-0.84,6.82
			c0,2.63,0.3,4.97,0.9,7.01c0.6,2.04,1.44,3.76,2.53,5.15c1.09,1.39,2.41,2.45,3.97,3.17c1.56,0.73,3.31,1.09,5.26,1.09
			c1.86,0,3.39-0.22,4.59-0.67c1.2-0.44,2.2-0.94,3-1.48c0.8-0.54,1.46-1.04,1.97-1.48c0.51-0.44,1.03-0.67,1.54-0.67
			c0.66,0,1.14,0.24,1.46,0.73l2.15,2.79c-1.89,2.32-4.25,4.01-7.08,5.08c-2.83,1.07-5.82,1.61-8.97,1.61c-2.72,0-5.24-0.5-7.57-1.5
			c-2.33-1-4.35-2.45-6.07-4.35c-1.72-1.9-3.07-4.24-4.05-7.01c-0.99-2.77-1.48-5.93-1.48-9.48c0-3.23,0.45-6.22,1.35-8.97
			s2.22-5.11,3.95-7.1c1.73-1.99,3.87-3.54,6.41-4.65s5.46-1.67,8.75-1.67c3.03,0,5.72,0.49,8.06,1.48
			c2.34,0.99,4.42,2.38,6.22,4.18L1333.52,3403.99z"/>
		<path class="st1" d="M1351.88,3376.53v37.19h1.97c0.57,0,1.04-0.08,1.42-0.24c0.37-0.16,0.79-0.48,1.24-0.97l13.73-14.71
			c0.43-0.46,0.86-0.83,1.29-1.12c0.43-0.29,1-0.43,1.72-0.43h6.95l-16,17.03c-0.4,0.49-0.79,0.92-1.18,1.29s-0.82,0.7-1.31,0.99
			c0.52,0.34,0.98,0.74,1.39,1.18c0.41,0.44,0.81,0.95,1.18,1.52l16.99,21.45h-6.86c-0.63,0-1.17-0.12-1.61-0.36
			c-0.44-0.24-0.87-0.62-1.27-1.14l-14.28-17.8c-0.43-0.6-0.86-0.99-1.29-1.18c-0.43-0.19-1.07-0.28-1.93-0.28h-2.15v20.76h-7.68
			v-63.19H1351.88z"/>
		<path class="st1" d="M1430.34,3403.43c-0.34,0.63-0.87,0.94-1.59,0.94c-0.43,0-0.92-0.16-1.46-0.47c-0.54-0.31-1.21-0.67-2-1.05
			c-0.79-0.39-1.72-0.74-2.81-1.07c-1.09-0.33-2.37-0.49-3.86-0.49c-1.29,0-2.45,0.17-3.47,0.49c-1.03,0.33-1.91,0.78-2.64,1.35
			c-0.73,0.57-1.29,1.24-1.67,2c-0.39,0.76-0.58,1.58-0.58,2.47c0,1.12,0.32,2.04,0.97,2.79c0.64,0.74,1.49,1.39,2.55,1.93
			s2.26,1.02,3.6,1.44c1.34,0.42,2.72,0.86,4.14,1.33s2.79,0.99,4.14,1.57c1.34,0.57,2.54,1.29,3.6,2.15
			c1.06,0.86,1.91,1.91,2.55,3.15s0.97,2.74,0.97,4.48c0,2-0.36,3.85-1.07,5.55c-0.72,1.7-1.77,3.17-3.17,4.42
			c-1.4,1.24-3.12,2.22-5.15,2.94c-2.03,0.71-4.38,1.07-7.04,1.07c-3.03,0-5.78-0.49-8.24-1.48c-2.46-0.99-4.55-2.25-6.26-3.8
			l1.8-2.92c0.23-0.37,0.5-0.66,0.81-0.86c0.31-0.2,0.73-0.3,1.24-0.3s1.06,0.2,1.63,0.6c0.57,0.4,1.27,0.84,2.08,1.33
			c0.82,0.49,1.8,0.93,2.96,1.33c1.16,0.4,2.61,0.6,4.35,0.6c1.49,0,2.79-0.19,3.9-0.58s2.04-0.91,2.79-1.57
			c0.74-0.66,1.29-1.42,1.65-2.27c0.36-0.86,0.54-1.77,0.54-2.75c0-1.2-0.32-2.19-0.96-2.98c-0.64-0.79-1.5-1.46-2.55-2.02
			c-1.06-0.56-2.27-1.04-3.62-1.46c-1.36-0.41-2.75-0.85-4.16-1.31c-1.42-0.46-2.8-0.98-4.16-1.57c-1.36-0.59-2.57-1.32-3.62-2.21
			c-1.06-0.89-1.91-1.98-2.55-3.28c-0.64-1.3-0.97-2.88-0.97-4.74c0-1.66,0.34-3.25,1.03-4.78c0.69-1.53,1.69-2.87,3-4.03
			c1.32-1.16,2.93-2.08,4.85-2.77c1.92-0.69,4.1-1.03,6.56-1.03c2.86,0,5.43,0.45,7.7,1.35c2.27,0.9,4.24,2.14,5.9,3.71
			L1430.34,3403.43z"/>
		<path class="st1" d="M1455.86,3440.41c-3.43,0-6.07-0.96-7.91-2.87s-2.77-4.68-2.77-8.28v-26.6h-5.23c-0.46,0-0.84-0.14-1.16-0.41
			c-0.31-0.27-0.47-0.69-0.47-1.27v-3.05l7.12-0.9l1.76-13.43c0.06-0.43,0.24-0.78,0.56-1.05c0.31-0.27,0.71-0.41,1.2-0.41h3.86
			v14.97h12.44v5.53h-12.44v26.08c0,1.83,0.44,3.19,1.33,4.08c0.89,0.89,2.03,1.33,3.43,1.33c0.8,0,1.49-0.11,2.08-0.32
			c0.59-0.21,1.09-0.45,1.52-0.71c0.43-0.26,0.79-0.49,1.09-0.71c0.3-0.21,0.56-0.32,0.79-0.32c0.4,0,0.76,0.24,1.07,0.73l2.23,3.65
			c-1.32,1.23-2.9,2.19-4.76,2.9C1459.75,3440.06,1457.83,3440.41,1455.86,3440.41z"/>
		<path class="st1" d="M1492.28,3395.58c3.17,0,6.04,0.53,8.6,1.59c2.56,1.06,4.73,2.56,6.52,4.5c1.79,1.94,3.16,4.3,4.12,7.06
			c0.96,2.76,1.44,5.84,1.44,9.24c0,3.43-0.48,6.52-1.44,9.27c-0.96,2.75-2.33,5.09-4.12,7.04c-1.79,1.95-3.96,3.44-6.52,4.48
			c-2.56,1.04-5.43,1.57-8.6,1.57s-6.04-0.52-8.6-1.57c-2.56-1.04-4.74-2.54-6.54-4.48c-1.8-1.94-3.19-4.29-4.16-7.04
			c-0.97-2.75-1.46-5.83-1.46-9.27c0-3.4,0.49-6.48,1.46-9.24c0.97-2.76,2.36-5.11,4.16-7.06c1.8-1.95,3.98-3.45,6.54-4.5
			C1486.24,3396.11,1489.1,3395.58,1492.28,3395.58z M1492.28,3434.36c4.29,0,7.49-1.44,9.61-4.31c2.12-2.87,3.17-6.88,3.17-12.03
			c0-5.18-1.06-9.21-3.17-12.1c-2.12-2.89-5.32-4.33-9.61-4.33c-2.17,0-4.06,0.37-5.66,1.12c-1.6,0.74-2.94,1.82-4.01,3.22
			c-1.07,1.4-1.87,3.12-2.4,5.17c-0.53,2.04-0.79,4.35-0.79,6.93c0,2.57,0.26,4.88,0.79,6.91c0.53,2.03,1.33,3.74,2.4,5.13
			c1.07,1.39,2.41,2.45,4.01,3.2C1488.22,3433.99,1490.1,3434.36,1492.28,3434.36z"/>
		<path class="st1" d="M1522.39,3439.72v-43.46h4.38c0.83,0,1.4,0.16,1.72,0.47c0.31,0.32,0.53,0.86,0.64,1.63l0.51,6.78
			c1.49-3.03,3.32-5.4,5.51-7.1c2.19-1.7,4.75-2.55,7.7-2.55c1.2,0,2.29,0.14,3.26,0.41c0.97,0.27,1.87,0.65,2.7,1.14l-0.99,5.71
			c-0.2,0.71-0.64,1.07-1.33,1.07c-0.4,0-1.02-0.14-1.84-0.41c-0.83-0.27-1.99-0.41-3.47-0.41c-2.66,0-4.88,0.77-6.67,2.32
			c-1.79,1.54-3.28,3.79-4.48,6.74v27.67H1522.39z"/>
		<path class="st1" d="M1587.25,3439.72h-3.39c-0.74,0-1.34-0.11-1.8-0.34c-0.46-0.23-0.76-0.71-0.9-1.46l-0.86-4.03
			c-1.14,1.03-2.26,1.95-3.35,2.77c-1.09,0.82-2.23,1.5-3.43,2.06s-2.48,0.98-3.84,1.27c-1.36,0.29-2.87,0.43-4.53,0.43
			c-1.69,0-3.27-0.24-4.74-0.71c-1.47-0.47-2.75-1.18-3.84-2.13c-1.09-0.95-1.95-2.15-2.6-3.59c-0.64-1.45-0.96-3.16-0.96-5.14
			c0-1.72,0.47-3.38,1.42-4.97s2.47-3.01,4.57-4.24c2.1-1.23,4.85-2.25,8.26-3.04c3.4-0.79,7.56-1.18,12.48-1.18v-3.41
			c0-3.4-0.72-5.96-2.17-7.71c-1.44-1.74-3.58-2.61-6.41-2.61c-1.86,0-3.43,0.24-4.7,0.71c-1.27,0.47-2.37,1-3.3,1.59
			c-0.93,0.59-1.73,1.12-2.4,1.59c-0.67,0.47-1.34,0.71-1.99,0.71c-0.51,0-0.97-0.14-1.35-0.41c-0.39-0.27-0.69-0.61-0.92-1.01
			l-1.37-2.45c2.4-2.32,4.99-4.05,7.76-5.19c2.77-1.14,5.85-1.72,9.22-1.72c2.43,0,4.59,0.4,6.48,1.2c1.89,0.8,3.47,1.92,4.76,3.35
			c1.29,1.43,2.26,3.16,2.92,5.19c0.66,2.03,0.99,4.26,0.99,6.69V3439.72z M1567.44,3435.04c1.34,0,2.57-0.14,3.69-0.41
			s2.17-0.66,3.15-1.16c0.99-0.5,1.93-1.11,2.83-1.82s1.78-1.53,2.64-2.45v-8.97c-3.52,0-6.51,0.22-8.97,0.67
			c-2.46,0.45-4.46,1.03-6.01,1.75c-1.54,0.72-2.67,1.57-3.37,2.55c-0.7,0.98-1.05,2.07-1.05,3.28c0,1.15,0.19,2.14,0.56,2.98
			c0.37,0.83,0.87,1.52,1.5,2.05c0.63,0.53,1.37,0.92,2.23,1.16C1565.51,3434.92,1566.43,3435.04,1567.44,3435.04z"/>
		<path class="st1" d="M1613.46,3395.54c1.89,0,3.65,0.21,5.3,0.62c1.64,0.42,3.14,1.02,4.48,1.82h11.8v2.83
			c0,0.94-0.6,1.54-1.8,1.8l-4.93,0.69c0.97,1.86,1.46,3.93,1.46,6.22c0,2.12-0.41,4.04-1.22,5.77c-0.81,1.73-1.95,3.21-3.39,4.44
			c-1.44,1.23-3.16,2.17-5.15,2.83c-1.99,0.66-4.17,0.99-6.54,0.99c-2.03,0-3.95-0.24-5.75-0.73c-0.92,0.59-1.61,1.23-2.08,1.91
			c-0.47,0.68-0.71,1.35-0.71,2c0,1.06,0.41,1.87,1.24,2.42c0.83,0.55,1.93,0.94,3.3,1.18c1.37,0.24,2.93,0.35,4.68,0.35
			c1.74,0,3.52,0,5.34,0c1.82,0,3.6,0.16,5.34,0.48c1.74,0.32,3.3,0.84,4.68,1.56c1.37,0.72,2.47,1.72,3.3,3
			c0.83,1.27,1.24,2.92,1.24,4.95c0,1.88-0.46,3.71-1.39,5.47c-0.93,1.77-2.27,3.34-4.01,4.71c-1.75,1.37-3.88,2.47-6.39,3.3
			c-2.52,0.83-5.36,1.24-8.54,1.24s-5.96-0.31-8.34-0.94c-2.39-0.63-4.37-1.47-5.94-2.53c-1.57-1.06-2.75-2.28-3.54-3.67
			c-0.79-1.39-1.18-2.84-1.18-4.36c0-2.15,0.68-3.97,2.04-5.48c1.36-1.5,3.22-2.7,5.6-3.59c-1.23-0.57-2.21-1.33-2.94-2.29
			c-0.73-0.96-1.09-2.23-1.09-3.83c0-0.63,0.11-1.28,0.34-1.95c0.23-0.67,0.58-1.33,1.05-1.99c0.47-0.66,1.05-1.29,1.74-1.88
			s1.49-1.13,2.4-1.58c-2.15-1.2-3.83-2.79-5.04-4.78c-1.22-1.99-1.82-4.31-1.82-6.97c0-2.12,0.41-4.04,1.22-5.77
			c0.81-1.73,1.95-3.2,3.41-4.42s3.2-2.15,5.21-2.81C1608.85,3395.86,1611.06,3395.54,1613.46,3395.54z M1627.02,3441.93
			c0-1.11-0.3-2-0.9-2.67c-0.6-0.67-1.42-1.19-2.45-1.55c-1.03-0.37-2.22-0.63-3.56-0.81c-1.34-0.17-2.76-0.26-4.25-0.26
			c-1.49,0-3,0-4.55,0c-1.54,0-3.02-0.19-4.42-0.58c-1.63,0.77-2.95,1.72-3.97,2.84c-1.02,1.12-1.52,2.45-1.52,4
			c0,0.97,0.25,1.88,0.75,2.73s1.27,1.58,2.3,2.19c1.03,0.62,2.32,1.1,3.88,1.46c1.56,0.36,3.4,0.54,5.51,0.54
			c2.06,0,3.9-0.19,5.53-0.57c1.63-0.38,3.01-0.92,4.14-1.62c1.13-0.7,1.99-1.53,2.6-2.49
			C1626.72,3444.16,1627.02,3443.09,1627.02,3441.93z M1613.46,3418.49c1.54,0,2.91-0.21,4.1-0.64c1.19-0.43,2.18-1.03,2.98-1.8
			c0.8-0.77,1.4-1.69,1.8-2.77c0.4-1.07,0.6-2.25,0.6-3.54c0-2.66-0.81-4.78-2.42-6.35c-1.62-1.57-3.97-2.36-7.06-2.36
			c-3.06,0-5.4,0.79-7.01,2.36c-1.62,1.57-2.42,3.69-2.42,6.35c0,1.29,0.21,2.47,0.62,3.54c0.41,1.07,1.02,2,1.82,2.77
			c0.8,0.77,1.79,1.37,2.96,1.8C1610.6,3418.27,1611.95,3418.49,1613.46,3418.49z"/>
		<path class="st1" d="M1659.88,3395.58c2.6,0,5,0.44,7.21,1.31c2.2,0.87,4.1,2.13,5.71,3.77c1.6,1.65,2.85,3.68,3.75,6.09
			c0.9,2.42,1.35,5.17,1.35,8.26c0,1.2-0.13,2-0.39,2.4c-0.26,0.4-0.74,0.6-1.46,0.6h-28.91c0.06,2.75,0.43,5.13,1.12,7.16
			c0.69,2.03,1.63,3.72,2.83,5.08s2.63,2.37,4.29,3.05c1.66,0.67,3.52,1.01,5.58,1.01c1.92,0,3.57-0.22,4.95-0.67
			c1.39-0.44,2.58-0.92,3.58-1.44c1-0.51,1.84-0.99,2.51-1.44c0.67-0.44,1.25-0.67,1.74-0.67c0.63,0,1.12,0.24,1.46,0.73l2.15,2.79
			c-0.94,1.14-2.07,2.14-3.39,2.98c-1.32,0.84-2.72,1.54-4.23,2.08s-3.05,0.95-4.65,1.22c-1.6,0.27-3.19,0.41-4.76,0.41
			c-3,0-5.77-0.51-8.3-1.52c-2.53-1.02-4.72-2.5-6.56-4.46c-1.84-1.96-3.28-4.38-4.31-7.27c-1.03-2.89-1.54-6.21-1.54-9.95
			c0-3.03,0.46-5.86,1.39-8.49s2.27-4.91,4.01-6.84c1.74-1.93,3.88-3.45,6.39-4.55C1653.9,3396.13,1656.73,3395.58,1659.88,3395.58z
			 M1660.05,3401.2c-3.69,0-6.59,1.07-8.71,3.2c-2.12,2.13-3.43,5.08-3.95,8.86h23.64c0-1.77-0.24-3.4-0.73-4.87
			c-0.49-1.47-1.2-2.75-2.15-3.82c-0.94-1.07-2.1-1.9-3.45-2.49C1663.35,3401.49,1661.79,3401.2,1660.05,3401.2z"/>
	</g>
</g>
<g>
	<path class="st1" d="M1430.68,1451.5c-2.76,0-5-2.24-5-5v-247.9c0-2.76,2.24-5,5-5s5,2.24,5,5v247.9
		C1435.68,1449.26,1433.44,1451.5,1430.68,1451.5z"/>
</g>
<g>
	<g>
		<g>
			<path class="st2" d="M1595.97,304.08c-7.16-45.68-32.8-85.23-69.04-110.76c-5.04,4.85-10.4,9.29-16.05,13.29
				c5.57,3.62,10.92,7.62,15.99,12c26.44,22.82,43.96,54.27,49.33,88.57c0.12,0.76-0.08,1.45-0.6,2.05
				c-0.37,0.44-1.03,0.96-2.07,0.96h-285.74c-1.03,0-1.7-0.52-2.07-0.96c-0.51-0.6-0.71-1.29-0.6-2.05
				c5.37-34.29,22.89-65.74,49.33-88.57c5.08-4.38,10.42-8.38,15.99-12c-5.65-4-11.01-8.44-16.05-13.29
				c-36.23,25.53-61.88,65.07-69.04,110.76c-2.15,13.72,8.53,26.1,22.42,26.1h285.74C1587.44,330.18,1598.12,317.8,1595.97,304.08z"
				/>
		</g>
		<g>
			<path class="st3" d="M1430.68,186.31c-51.37,0-93.15-41.79-93.15-93.15S1379.31,0,1430.68,0s93.15,41.79,93.15,93.15
				S1482.04,186.31,1430.68,186.31z M1430.68,20c-40.34,0-73.15,32.82-73.15,73.15c0,40.34,32.82,73.15,73.15,73.15
				s73.15-32.82,73.15-73.15C1503.83,52.82,1471.02,20,1430.68,20z"/>
		</g>
	</g>
	<g>
		<path class="st1" d="M1430.68,623.96c-2.76,0-5-2.24-5-5v-247.9c0-2.76,2.24-5,5-5s5,2.24,5,5v247.9
			C1435.68,621.72,1433.44,623.96,1430.68,623.96z"/>
	</g>
	<g>
		<path class="st2" d="M1671.26,909.28c0-33.85-6.87-66.6-20.43-97.33c-11.67-26.45-27.75-50.28-47.9-70.97l0.17-0.16l-7.72-7.28
			c-0.01,0-0.01-0.01-0.01-0.01l-6.85-6.46l-0.13,0.12c-44-38.38-99.96-59.41-158.63-59.41c-58.67,0-114.63,21.03-158.63,59.41
			l-0.13-0.12l-6.86,6.47c-0.04,0.03-0.07,0.07-0.11,0.1l-7.61,7.17l0.17,0.16c-20.14,20.69-36.23,44.52-47.9,70.97
			c-13.55,30.73-20.43,63.48-20.43,97.33s6.87,66.6,20.43,97.33c11.67,26.45,27.75,50.28,47.9,70.97l-0.17,0.16l7.61,7.17
			c0.04,0.03,0.07,0.07,0.11,0.1l6.86,6.47l0.13-0.12c44,38.38,99.96,59.41,158.63,59.41c58.67,0,114.63-21.03,158.63-59.41
			l0.13,0.12l6.85-6.46c0.01,0,0.01-0.01,0.01-0.01l7.72-7.28l-0.17-0.16c20.14-20.69,36.23-44.52,47.9-70.97
			C1664.39,975.88,1671.26,943.13,1671.26,909.28z M1573.56,740.82c-12.66,10.82-26.45,20.15-41.17,27.86
			c-11.36-30.84-26.16-55.56-43.12-72.8C1520.11,704.45,1548.85,719.68,1573.56,740.82z M1440.57,688.97
			c13.05,2.88,25.69,11.01,37.69,24.28c14.06,15.54,26.4,37.52,35.95,63.93c-23.45,9.7-48.15,15.2-73.64,16.41V688.97z
			 M1420.57,688.64v105.02c-26.05-1.05-51.28-6.58-75.24-16.49c9.55-26.41,21.9-48.39,35.95-63.93
			C1393.77,699.44,1406.94,691.19,1420.57,688.64z M1370.26,695.88c-16.96,17.24-31.76,41.96-43.12,72.8
			c-14.72-7.71-28.5-17.03-41.17-27.86C1310.69,719.68,1339.42,704.45,1370.26,695.88z M1285.97,1077.74
			c12.66-10.82,26.44-20.15,41.17-27.86c11.36,30.84,26.16,55.56,43.12,72.8C1339.42,1114.11,1310.69,1098.88,1285.97,1077.74z
			 M1420.57,1129.92c-13.62-2.55-26.8-10.8-39.29-24.6c-14.06-15.54-26.4-37.52-35.95-63.93c23.96-9.91,49.19-15.44,75.24-16.49
			V1129.92z M1440.57,1129.59v-104.62c25.49,1.21,50.19,6.71,73.64,16.41c-9.55,26.41-21.9,48.39-35.95,63.93
			C1466.26,1118.58,1453.62,1126.71,1440.57,1129.59z M1489.28,1122.69c16.96-17.24,31.76-41.96,43.12-72.8
			c14.72,7.71,28.5,17.03,41.17,27.86C1548.85,1098.88,1520.11,1114.11,1489.28,1122.69z M1588.25,1064
			c-15.06-13.11-31.6-24.26-49.37-33.27l0.05-0.16l-0.11-0.05c4.33-14.52,7.83-29.85,10.5-45.71h-20.29
			c-2.3,12.96-5.17,25.52-8.64,37.5c-25.45-10.33-52.22-16.15-79.83-17.35v-20.14h-20v20.07c-28.17,1.04-55.48,6.89-81.43,17.43
			c-3.47-11.98-6.35-24.53-8.64-37.5h-20.29c2.67,15.86,6.17,31.19,10.5,45.71l-0.11,0.05l0.05,0.16
			c-17.77,9.01-34.31,20.16-49.37,33.27c-40.7-41.59-63.01-96.17-63.01-154.72s22.3-113.14,63.01-154.72
			c15.06,13.11,31.6,24.26,49.37,33.27l-0.05,0.16l0.11,0.05c-4.33,14.52-7.83,29.85-10.5,45.71h20.29
			c2.3-12.96,5.17-25.52,8.64-37.5c25.95,10.54,53.26,16.38,81.43,17.43v20.07h20v-20.14c27.62-1.2,54.38-7.02,79.83-17.35
			c3.47,11.98,6.35,24.53,8.64,37.5h20.29c-2.67-15.86-6.17-31.19-10.5-45.71l0.11-0.05l-0.05-0.16
			c17.77-9.01,34.31-20.16,49.37-33.27c40.7,41.59,63.01,96.17,63.01,154.72S1628.96,1022.42,1588.25,1064z"/>
		<g>
			<path class="st1" d="M1290.37,938.27h-8.32V876.8h8.32V938.27z"/>
			<path class="st1" d="M1305.64,938.27v-43.46h4.55c1.09,0,1.77,0.53,2.06,1.59l0.6,4.72c1.89-2.09,4-3.78,6.33-5.06
				c2.33-1.29,5.03-1.93,8.09-1.93c2.37,0,4.47,0.39,6.28,1.18c1.82,0.79,3.33,1.9,4.55,3.35c1.21,1.44,2.14,3.18,2.77,5.21
				c0.63,2.03,0.94,4.28,0.94,6.74v27.67h-7.64V910.6c0-3.29-0.75-5.84-2.25-7.66c-1.5-1.82-3.8-2.72-6.89-2.72
				c-2.26,0-4.37,0.54-6.33,1.63s-3.77,2.56-5.43,4.42v32H1305.64z"/>
			<path class="st1" d="M1366.51,938.96c-3.43,0-6.07-0.96-7.91-2.87s-2.77-4.68-2.77-8.28v-26.6h-5.23c-0.46,0-0.84-0.14-1.16-0.41
				c-0.31-0.27-0.47-0.69-0.47-1.27v-3.05l7.12-0.9l1.76-13.43c0.06-0.43,0.24-0.78,0.56-1.05c0.31-0.27,0.71-0.41,1.2-0.41h3.86
				v14.97h12.44v5.53h-12.44v26.08c0,1.83,0.44,3.19,1.33,4.08c0.89,0.89,2.03,1.33,3.43,1.33c0.8,0,1.49-0.11,2.08-0.32
				c0.59-0.21,1.09-0.45,1.52-0.71c0.43-0.26,0.79-0.49,1.09-0.71c0.3-0.21,0.56-0.32,0.79-0.32c0.4,0,0.76,0.24,1.07,0.73
				l2.23,3.65c-1.32,1.23-2.9,2.19-4.76,2.9C1370.4,938.6,1368.48,938.96,1366.51,938.96z"/>
			<path class="st1" d="M1402.54,894.13c2.6,0,5,0.44,7.21,1.31c2.2,0.87,4.1,2.13,5.71,3.77c1.6,1.65,2.85,3.68,3.75,6.09
				c0.9,2.42,1.35,5.17,1.35,8.26c0,1.2-0.13,2-0.39,2.4c-0.26,0.4-0.74,0.6-1.46,0.6h-28.91c0.06,2.75,0.43,5.13,1.12,7.16
				c0.69,2.03,1.63,3.72,2.83,5.08s2.63,2.37,4.29,3.05c1.66,0.67,3.52,1.01,5.58,1.01c1.92,0,3.57-0.22,4.95-0.67
				c1.39-0.44,2.58-0.92,3.58-1.44c1-0.51,1.84-0.99,2.51-1.44c0.67-0.44,1.25-0.67,1.74-0.67c0.63,0,1.12,0.24,1.46,0.73l2.15,2.79
				c-0.94,1.14-2.07,2.14-3.39,2.98c-1.32,0.84-2.72,1.54-4.23,2.08s-3.05,0.95-4.65,1.22c-1.6,0.27-3.19,0.41-4.76,0.41
				c-3,0-5.77-0.51-8.3-1.52c-2.53-1.02-4.72-2.5-6.56-4.46c-1.84-1.96-3.28-4.38-4.31-7.27c-1.03-2.89-1.54-6.21-1.54-9.95
				c0-3.03,0.46-5.86,1.39-8.49s2.27-4.91,4.01-6.84c1.74-1.93,3.88-3.45,6.39-4.55C1396.56,894.68,1399.4,894.13,1402.54,894.13z
				 M1402.71,899.75c-3.69,0-6.59,1.07-8.71,3.2c-2.12,2.13-3.43,5.08-3.95,8.86h23.64c0-1.77-0.24-3.4-0.73-4.87
				c-0.49-1.47-1.2-2.75-2.15-3.82c-0.94-1.07-2.1-1.9-3.45-2.49C1406.01,900.04,1404.46,899.75,1402.71,899.75z"/>
			<path class="st1" d="M1430.3,938.27v-43.46h4.38c0.83,0,1.4,0.16,1.72,0.47c0.31,0.32,0.53,0.86,0.64,1.63l0.51,6.78
				c1.49-3.03,3.32-5.4,5.51-7.1c2.19-1.7,4.75-2.55,7.7-2.55c1.2,0,2.29,0.14,3.26,0.41c0.97,0.27,1.87,0.65,2.7,1.14l-0.99,5.71
				c-0.2,0.71-0.64,1.07-1.33,1.07c-0.4,0-1.02-0.14-1.84-0.41c-0.83-0.27-1.99-0.41-3.47-0.41c-2.66,0-4.88,0.77-6.67,2.32
				c-1.79,1.54-3.28,3.79-4.48,6.74v27.67H1430.3z"/>
			<path class="st1" d="M1464.87,938.27v-43.46h4.55c1.09,0,1.77,0.53,2.06,1.59l0.6,4.72c1.89-2.09,4-3.78,6.33-5.06
				c2.33-1.29,5.03-1.93,8.09-1.93c2.37,0,4.47,0.39,6.28,1.18c1.82,0.79,3.33,1.9,4.55,3.35c1.21,1.44,2.14,3.18,2.77,5.21
				c0.63,2.03,0.94,4.28,0.94,6.74v27.67h-7.64V910.6c0-3.29-0.75-5.84-2.25-7.66c-1.5-1.82-3.8-2.72-6.89-2.72
				c-2.26,0-4.37,0.54-6.33,1.63s-3.77,2.56-5.43,4.42v32H1464.87z"/>
			<path class="st1" d="M1529.77,894.13c2.6,0,5,0.44,7.21,1.31c2.2,0.87,4.1,2.13,5.71,3.77c1.6,1.65,2.85,3.68,3.75,6.09
				c0.9,2.42,1.35,5.17,1.35,8.26c0,1.2-0.13,2-0.39,2.4c-0.26,0.4-0.74,0.6-1.46,0.6h-28.91c0.06,2.75,0.43,5.13,1.12,7.16
				c0.69,2.03,1.63,3.72,2.83,5.08s2.63,2.37,4.29,3.05c1.66,0.67,3.52,1.01,5.58,1.01c1.92,0,3.57-0.22,4.95-0.67
				c1.39-0.44,2.58-0.92,3.58-1.44c1-0.51,1.84-0.99,2.51-1.44c0.67-0.44,1.25-0.67,1.74-0.67c0.63,0,1.12,0.24,1.46,0.73l2.15,2.79
				c-0.94,1.14-2.07,2.14-3.39,2.98c-1.32,0.84-2.72,1.54-4.23,2.08s-3.05,0.95-4.65,1.22c-1.6,0.27-3.19,0.41-4.76,0.41
				c-3,0-5.77-0.51-8.3-1.52c-2.53-1.02-4.72-2.5-6.56-4.46c-1.84-1.96-3.28-4.38-4.31-7.27c-1.03-2.89-1.54-6.21-1.54-9.95
				c0-3.03,0.46-5.86,1.39-8.49s2.27-4.91,4.01-6.84c1.74-1.93,3.88-3.45,6.39-4.55C1523.8,894.68,1526.63,894.13,1529.77,894.13z
				 M1529.95,899.75c-3.69,0-6.59,1.07-8.71,3.2c-2.12,2.13-3.43,5.08-3.95,8.86h23.64c0-1.77-0.24-3.4-0.73-4.87
				c-0.49-1.47-1.2-2.75-2.15-3.82c-0.94-1.07-2.1-1.9-3.45-2.49C1533.24,900.04,1531.69,899.75,1529.95,899.75z"/>
			<path class="st1" d="M1570.7,938.96c-3.43,0-6.07-0.96-7.91-2.87s-2.77-4.68-2.77-8.28v-26.6h-5.23c-0.46,0-0.84-0.14-1.16-0.41
				c-0.31-0.27-0.47-0.69-0.47-1.27v-3.05l7.12-0.9l1.76-13.43c0.06-0.43,0.24-0.78,0.56-1.05c0.31-0.27,0.71-0.41,1.2-0.41h3.86
				v14.97h12.44v5.53h-12.44v26.08c0,1.83,0.44,3.19,1.33,4.08c0.89,0.89,2.03,1.33,3.43,1.33c0.8,0,1.49-0.11,2.08-0.32
				c0.59-0.21,1.09-0.45,1.52-0.71c0.43-0.26,0.79-0.49,1.09-0.71c0.3-0.21,0.56-0.32,0.79-0.32c0.4,0,0.76,0.24,1.07,0.73
				l2.23,3.65c-1.32,1.23-2.9,2.19-4.76,2.9C1574.59,938.6,1572.67,938.96,1570.7,938.96z"/>
		</g>
	</g>
</g>
</svg>
